<?xml version="1.0" encoding="UTF-8"?>
<!-- Generated by Pixelmator Pro 3.5.3 -->
<svg width="276" height="360" viewBox="0 0 276 360" xmlns="http://www.w3.org/2000/svg">
    <linearGradient id="linearGradient1" x1="153.348" y1="151.4502" x2="131.0507" y2="101.4502" gradientUnits="userSpaceOnUse">
        <stop offset="0.009649" stop-color="#008a52" stop-opacity="1"/>
        <stop offset="0.4393" stop-color="#26a146" stop-opacity="1"/>
        <stop offset="1" stop-color="#39b54a" stop-opacity="1"/>
    </linearGradient>
    <path id="Path" fill="url(#linearGradient1)" stroke="none" d="M 272.820007 43.080017 C 261.200012 17.75 207.160004 22.140015 206.649994 22.26001 L 206.609985 22.27002 C 209.23999 24.179993 211.799988 26.200012 214.26001 28.309998 C 228.170013 30.73999 245.649994 34.839996 249.980011 43.75 C 251.890015 47.679993 251.25 52.410004 248.019989 58.22998 C 246.910004 60.22998 245.040009 62.330017 242.540009 64.470001 C 236.529999 69.600006 226.769989 74.970001 214.320007 79.859985 C 213.470001 80.200012 212.549988 80.539978 211.579987 80.890015 C 189.220001 88.960022 138 100.52002 137.480011 100.640015 C 135.130005 101.149994 90.880005 110.830017 56.350006 124.450012 C 47.029999 128.130005 38.410004 132.100006 31.519989 136.25 C 29.76001 137.309998 26.890015 139.140015 23.600006 141.609985 C 18.940002 145.109985 13.420013 149.890015 8.959991 155.649994 C -0.079987 167.309998 -2.080002 179.529999 3.179993 190.980011 C 11.730011 209.609985 43.230011 212.160004 59.5 212.160004 C 65.339996 212.160004 69.220001 211.829987 69.350006 211.799988 L 69.390015 211.790009 C 66.76001 209.880005 64.200012 207.859985 61.73999 205.75 C 47.829987 203.320007 30.350006 199.220001 26.019989 190.309998 C 24.109985 186.380005 24.75 181.649994 27.980011 175.829987 C 29.089996 173.829987 30.959991 171.730011 33.459991 169.589996 C 39.470001 164.459991 49.230011 159.089996 61.679993 154.200012 C 62.540009 153.859985 63.459991 153.519989 64.420013 153.170013 C 85.850006 145.420013 133.410004 134.579987 138.220001 133.48999 L 138.519989 133.420013 C 140.869995 132.910004 185.130005 123.220001 219.649994 109.600006 C 228.980011 105.919983 237.589996 101.950012 244.480011 97.799988 C 246.23999 96.73999 249.109985 94.910004 252.410004 92.440002 C 257.070007 88.940002 262.590027 84.160004 267.049988 78.399994 C 276.080017 66.75 278.080017 54.529999 272.820007 43.080017 Z"/>
    <linearGradient id="linearGradient2" x1="155.6729" y1="182.583" x2="140.808" y2="122.4479" gradientUnits="userSpaceOnUse">
        <stop offset="1e-05" stop-color="#3057a5" stop-opacity="1"/>
        <stop offset="1" stop-color="#1d386d" stop-opacity="1"/>
    </linearGradient>
    <path id="path1" fill="url(#linearGradient2)" stroke="none" d="M 252.399994 92.450012 C 249.109985 94.919983 246.230011 96.75 244.470001 97.809998 C 237.579987 101.960022 228.970001 105.929993 219.640015 109.609985 C 219.859985 112.059998 219.98999 114.529999 219.98999 117.039978 C 219.98999 125.77002 218.609985 134.170013 216.070007 142.070007 C 205.459991 175.079987 174.480011 199.040009 137.98999 199.040009 C 116.959991 199.040009 97.76001 191.070007 83.230011 178.01001 C 75.480011 171.040009 69.059998 162.619995 64.399994 153.179993 C 63.429993 153.529999 62.51001 153.869995 61.660004 154.209991 C 49.209991 159.100006 39.450012 164.470001 33.440002 169.600006 C 33.570007 169.850006 33.700012 170.100006 33.829987 170.350006 C 35.899994 174.380005 38.190002 178.279999 40.690002 182.029999 C 43 185.480011 45.48999 188.799988 48.149994 191.980011 C 52.290009 196.940002 56.820007 201.549988 61.720001 205.76001 C 64.179993 207.880005 66.73999 209.890015 69.369995 211.799988 C 88.649994 225.779999 112.350006 234.029999 137.98999 234.029999 C 200.519989 234.029999 251.589996 184.980011 254.830017 123.25 C 254.940002 121.190002 254.98999 119.119995 254.98999 117.029999 C 255 108.600006 254.099976 100.380005 252.399994 92.450012 Z"/>
    <linearGradient id="linearGradient3" x1="116.8545" y1="8.7319" x2="129.0166" y2="79.6778" gradientUnits="userSpaceOnUse">
        <stop offset="1e-05" stop-color="#4bbbeb" stop-opacity="1"/>
        <stop offset="1" stop-color="#0070b9" stop-opacity="1"/>
    </linearGradient>
    <path id="path2" fill="url(#linearGradient3)" stroke="none" d="M 242.329987 64.049988 C 240.230011 59.919983 237.890015 55.929993 235.339996 52.109985 C 232.959991 48.539978 230.380005 45.119995 227.630005 41.850006 C 223.549988 36.98999 219.079987 32.460022 214.269989 28.320007 C 211.809998 26.200012 209.25 24.190002 206.619995 22.279999 C 187.339996 8.299988 163.640015 0.049988 138 0.049988 C 75.630005 0.049988 24.670013 48.850006 21.200012 110.350006 C 21.070007 112.570007 21 114.799988 21 117.049988 C 21 125.47998 21.899994 133.709991 23.600006 141.640015 C 26.890015 139.170013 29.769989 137.339996 31.519989 136.279999 C 38.410004 132.130005 47.029999 128.160004 56.350006 124.47998 C 56.130005 122.029999 56 119.559998 56 117.059998 C 56 108.22998 57.420013 99.73999 60.01001 91.77002 C 70.700012 58.899994 101.609985 35.059998 138 35.059998 C 158.950012 35.059998 178.089996 42.970001 192.589996 55.950012 C 200.410004 62.950012 206.890015 71.419983 211.579987 80.919983 C 212.549988 80.570007 213.470001 80.22998 214.320007 79.890015 C 226.769989 75 236.529999 69.630005 242.540009 64.5 C 242.480011 64.330017 242.399994 64.190002 242.329987 64.049988 Z"/>
    <g id="Group">
        <linearGradient id="linearGradient4" x1="71.9595" y1="359.6799" x2="71.9595" y2="235.9648" gradientUnits="userSpaceOnUse">
            <stop offset="0.009649" stop-color="#008a52" stop-opacity="1"/>
            <stop offset="0.4393" stop-color="#26a146" stop-opacity="1"/>
            <stop offset="1" stop-color="#39b54a" stop-opacity="1"/>
        </linearGradient>
        <path id="path3" fill="url(#linearGradient4)" stroke="none" d="M 106.570007 256.880005 L 90.029999 256.880005 C 89.200012 256.880005 88.529999 257.549988 88.529999 258.380005 L 88.529999 262.079987 C 85.440002 259.200012 79.26001 255.220001 68.76001 255.220001 C 49.070007 255.220001 35.839996 270.01001 35.839996 292.029999 C 35.839996 314.029999 49.549988 329.390015 69.170013 329.390015 C 76.950012 329.390015 82.959991 327.149994 87.410004 322.559998 L 87.410004 326.230011 C 87.410004 339.920013 75.809998 341.970001 68.890015 341.970001 C 58.700012 341.970001 50.059998 337.589996 49.980011 337.549988 C 49.600006 337.359985 49.160004 337.329987 48.76001 337.480011 C 48.359985 337.630005 48.049988 337.940002 47.890015 338.339996 L 42.609985 351.820007 C 42.329987 352.529999 42.630005 353.329987 43.299988 353.690002 C 50.720001 357.630005 60.390015 359.980011 69.160004 359.980011 C 79.519989 359.980011 88.950012 357.160004 95.700012 352.049988 C 103.779999 345.920013 108.059998 336.559998 108.059998 324.980011 L 108.059998 258.399994 C 108.070007 257.549988 107.399994 256.880005 106.570007 256.880005 Z M 72.929993 311.51001 C 63.029999 311.51001 56.640015 303.640015 56.640015 291.459991 C 56.640015 280.040009 62.309998 273.220001 71.820007 273.220001 C 78.700012 273.220001 87.839996 275.179993 87.839996 292.149994 C 87.839996 304.820007 82.679993 311.51001 72.929993 311.51001 Z"/>
        <linearGradient id="linearGradient5" x1="150.562" y1="359.6799" x2="150.562" y2="235.9648" gradientUnits="userSpaceOnUse">
            <stop offset="0.009649" stop-color="#008a52" stop-opacity="1"/>
            <stop offset="0.4393" stop-color="#26a146" stop-opacity="1"/>
            <stop offset="1" stop-color="#39b54a" stop-opacity="1"/>
        </linearGradient>
        <path id="path4" fill="url(#linearGradient5)" stroke="none" d="M 152.859985 255.209991 C 130.779999 255.209991 115.359985 271.089996 115.359985 293.829987 C 115.359985 316.209991 132.01001 332.440002 154.950012 332.440002 C 172.98999 332.440002 184.01001 322.320007 184.470001 321.890015 C 184.970001 321.420013 185.089996 320.679993 184.769989 320.079987 L 177.959991 307.429993 C 177.73999 307.029999 177.359985 306.75 176.910004 306.670013 C 176.459991 306.579987 176 306.709991 175.660004 307.01001 C 175.570007 307.079987 166.890015 314.429993 156.200012 314.429993 C 143.660004 314.429993 137.940002 306.269989 136.640015 298.660004 L 183.859985 298.660004 C 184.640015 298.660004 185.290009 298.070007 185.350006 297.290009 C 185.369995 297.089996 185.769989 292.470001 185.769989 290.350006 C 185.769989 269.329987 172.540009 255.209991 152.859985 255.209991 Z M 152.440002 271.839996 C 159.459991 271.839996 164.109985 276.290009 164.880005 283.570007 L 137.350006 283.570007 C 139.329987 276.079987 144.75 271.839996 152.440002 271.839996 Z"/>
        <linearGradient id="linearGradient6" x1="213.3184" y1="359.6799" x2="213.3184" y2="235.9648" gradientUnits="userSpaceOnUse">
            <stop offset="0.009649" stop-color="#008a52" stop-opacity="1"/>
            <stop offset="0.4393" stop-color="#26a146" stop-opacity="1"/>
            <stop offset="1" stop-color="#39b54a" stop-opacity="1"/>
        </linearGradient>
        <path id="path5" fill="url(#linearGradient6)" stroke="none" d="M 235.399994 228.959991 C 235.299988 228.940002 232.859985 228.519989 229.160004 228.519989 C 220.019989 228.519989 198.75 231.230011 198.75 256.290009 L 198.75 257.98999 L 191.48999 257.98999 C 190.660004 257.98999 189.98999 258.660004 189.98999 259.48999 L 189.98999 273.529999 C 189.98999 274.359985 190.660004 275.029999 191.48999 275.029999 L 198.75 275.029999 L 198.75 329.269989 C 198.75 330.100006 199.420013 330.769989 200.25 330.769989 L 217.899994 330.769989 C 218.730011 330.769989 219.399994 330.100006 219.399994 329.269989 L 219.399994 275.029999 L 233.049988 275.029999 C 233.880005 275.029999 234.549988 274.359985 234.549988 273.529999 L 234.549988 259.48999 C 234.549988 258.660004 233.880005 257.98999 233.049988 257.98999 L 219.399994 257.98999 L 219.399994 256.709991 C 219.399994 250.049988 223.480011 246.670013 231.519989 246.670013 C 233.429993 246.670013 234.850006 246.920013 234.869995 246.920013 C 235.309998 247 235.76001 246.880005 236.100006 246.589996 C 236.440002 246.299988 236.640015 245.880005 236.640015 245.440002 L 236.640015 230.429993 C 236.640015 229.709991 236.119995 229.089996 235.399994 228.959991 Z"/>
    </g>
</svg>
