<svg width="121" height="41" viewBox="0 0 121 41" fill="none" xmlns="http://www.w3.org/2000/svg">
<path d="M17.999 28.6148C19.7671 29.1367 21.5384 29.1408 23.3129 28.6269L23.3166 36.7452C23.3166 36.935 23.2219 37.0397 23.0324 37.0591C18.6932 37.4978 14.8222 36.6179 11.4196 34.4192C3.13294 29.0669 1.27742 17.4955 7.53252 9.78444C14.1191 1.66253 26.5674 1.33043 33.4248 9.35901C39.6325 16.6289 38.7303 27.9336 30.8674 33.7369C30.854 33.7467 30.838 33.752 30.823 33.7515C30.808 33.7511 30.7951 33.7449 30.7872 33.7344L27.6567 29.6171C27.6465 29.6037 27.6425 29.5864 27.6455 29.5692C27.6484 29.552 27.6581 29.5361 27.6724 29.525C31.4102 26.6076 33.0787 21.8358 31.7951 17.2603C30.2153 11.6328 24.6997 8.08394 18.9729 8.92025C14.3584 9.59415 10.5283 13.0812 9.42568 17.6373C7.91261 23.889 11.7803 29.988 17.937 31.5637C17.9441 31.5655 17.9515 31.5658 17.9586 31.5643C17.9657 31.5629 17.9724 31.5598 17.9782 31.5553C17.984 31.5509 17.9886 31.5452 17.9918 31.5386C17.995 31.5321 17.9966 31.5249 17.9965 31.5176L17.999 28.6148Z" fill="#13407B"/>
<path d="M23.3129 28.6269C21.5384 29.1408 19.767 29.1368 17.9989 28.6148C13.3626 26.9822 10.8173 22.1716 12.4652 17.4676C14.6279 11.2922 22.86 9.56993 27.2219 14.6581C30.9099 18.9584 29.6312 25.278 24.7398 28.0112C24.4645 28.1647 23.9889 28.3699 23.3129 28.6269ZM24.0355 20.3438C24.0355 19.4501 23.6798 18.5931 23.0467 17.9612C22.4136 17.3293 21.5549 16.9743 20.6596 16.9743C19.7642 16.9743 18.9056 17.3293 18.2725 17.9612C17.6394 18.5931 17.2837 19.4501 17.2837 20.3438C17.2837 21.2374 17.6394 22.0945 18.2725 22.7264C18.9056 23.3583 19.7642 23.7133 20.6596 23.7133C21.5549 23.7133 22.4136 23.3583 23.0467 22.7264C23.6798 22.0945 24.0355 21.2374 24.0355 20.3438Z" fill="#2E8F5A"/>
<path d="M49.0898 20.4951H47.1469C47.131 20.4951 47.1157 20.4887 47.1044 20.4774C47.093 20.4661 47.0865 20.4507 47.0862 20.4345L47.0631 18.8588C47.0629 18.8509 47.0649 18.8431 47.0691 18.8358C47.0732 18.8285 47.0794 18.8218 47.0872 18.8161C47.095 18.8105 47.1043 18.806 47.1145 18.8029C47.1248 18.7999 47.1358 18.7983 47.1469 18.7982H50.7899C50.8047 18.7982 50.8189 18.8054 50.8294 18.8181C50.8399 18.8308 50.8458 18.8481 50.8458 18.8661C50.8506 19.8042 50.8522 20.7415 50.8506 21.678C50.8482 23.4149 50.218 23.9833 48.5021 23.9809C47.0271 23.9785 45.5516 23.9785 44.0758 23.9809C42.5105 23.9821 41.7017 23.587 41.6847 21.9471C41.6661 20.2923 41.6633 18.6374 41.6762 16.9826C41.686 15.5439 42.2288 14.8324 43.7127 14.83C45.3561 14.8284 46.9999 14.828 48.6442 14.8288C49.2092 14.8288 49.6189 14.8874 49.8731 15.0045C50.7207 15.3936 50.9296 16.3293 50.8385 17.2395C50.8364 17.2598 50.8272 17.2786 50.8126 17.2923C50.798 17.3059 50.7791 17.3135 50.7595 17.3135H49.2416C49.2175 17.3135 49.1943 17.3071 49.1772 17.2957C49.1601 17.2843 49.1505 17.2689 49.1505 17.2529V16.6153C49.1505 16.5838 49.1409 16.5536 49.1239 16.5313C49.1068 16.5091 49.0836 16.4965 49.0595 16.4965L43.42 16.5002C43.4023 16.5002 43.3853 16.5068 43.3728 16.5186C43.3603 16.5305 43.3533 16.5465 43.3533 16.5632L43.352 22.1919C43.352 22.2141 43.3584 22.2354 43.3698 22.2511C43.3812 22.2668 43.3967 22.2756 43.4128 22.2756L49.0595 22.2986C49.0836 22.2986 49.1068 22.2906 49.1239 22.2762C49.1409 22.2619 49.1505 22.2425 49.1505 22.2222V20.5557C49.1505 20.5396 49.1441 20.5242 49.1328 20.5128C49.1214 20.5015 49.1059 20.4951 49.0898 20.4951Z" fill="#13407B"/>
<path d="M62.9649 20.8357C62.9568 20.8355 62.9488 20.8368 62.9413 20.8394C62.9338 20.842 62.9269 20.8459 62.9212 20.8509C62.9154 20.8558 62.9108 20.8618 62.9077 20.8683C62.9046 20.8749 62.903 20.8819 62.903 20.889V23.9191C62.903 23.9352 62.8966 23.9506 62.8852 23.962C62.8738 23.9734 62.8584 23.9797 62.8423 23.9797H61.294C61.2779 23.9797 61.2624 23.9734 61.2511 23.962C61.2397 23.9506 61.2333 23.9352 61.2333 23.9191V14.8894C61.2333 14.8743 61.2401 14.8598 61.2521 14.8491C61.2642 14.8384 61.2806 14.8324 61.2976 14.8324C63.5069 14.8284 65.7138 14.8268 67.9182 14.8276C68.6266 14.8284 69.1188 14.8914 69.3949 15.0167C70.2692 15.413 70.4004 16.179 70.4052 17.1305C70.4113 18.3134 70.7246 20.1194 69.3172 20.6781C69.0905 20.7686 68.7145 20.8183 68.1891 20.8272C66.4614 20.8563 64.7201 20.8591 62.9649 20.8357ZM68.6981 16.6018C68.6981 16.591 68.696 16.5803 68.6918 16.5703C68.6876 16.5603 68.6815 16.5512 68.6738 16.5436C68.6662 16.5359 68.657 16.5299 68.647 16.5258C68.637 16.5216 68.6263 16.5195 68.6154 16.5195L62.9833 16.5294C62.9724 16.5294 62.9617 16.5315 62.9517 16.5357C62.9417 16.5399 62.9326 16.5459 62.9249 16.5536C62.9173 16.5613 62.9112 16.5704 62.9071 16.5804C62.903 16.5904 62.9008 16.6011 62.9009 16.6119L62.9052 19.0748C62.9052 19.0856 62.9073 19.0963 62.9115 19.1063C62.9157 19.1163 62.9218 19.1254 62.9294 19.133C62.9371 19.1407 62.9462 19.1467 62.9563 19.1509C62.9663 19.155 62.977 19.1571 62.9879 19.1571L68.62 19.1473C68.6309 19.1472 68.6416 19.1451 68.6516 19.1409C68.6616 19.1368 68.6707 19.1307 68.6784 19.123C68.686 19.1153 68.6921 19.1063 68.6962 19.0962C68.7003 19.0862 68.7025 19.0755 68.7024 19.0647L68.6981 16.6018Z" fill="#13407B"/>
<path d="M89.0576 16.5487L89.0503 18.4735C89.0503 18.4953 89.059 18.5163 89.0745 18.5318C89.09 18.5472 89.111 18.5559 89.1329 18.5559H94.3546C94.3868 18.5559 94.4177 18.5655 94.4405 18.5825C94.4632 18.5996 94.476 18.6227 94.476 18.6468V20.1922C94.476 20.2082 94.4664 20.2236 94.4494 20.235C94.4323 20.2464 94.4091 20.2528 94.385 20.2528L89.1414 20.2515C89.1192 20.2515 89.0979 20.2581 89.0822 20.2696C89.0665 20.2812 89.0576 20.297 89.0576 20.3134L89.0394 23.9192C89.0391 23.9354 89.0328 23.9508 89.0219 23.9621C89.011 23.9734 88.9964 23.9798 88.9811 23.9798H87.4328C87.4205 23.9798 87.4083 23.9775 87.3969 23.973C87.3856 23.9685 87.3753 23.9619 87.3667 23.9537C87.3581 23.9454 87.3514 23.9357 87.3469 23.925C87.3424 23.9142 87.3402 23.9028 87.3405 23.8913C87.4061 20.8818 87.3855 17.8856 87.3454 14.8931C87.3454 14.8847 87.3469 14.8763 87.3498 14.8685C87.3526 14.8607 87.3568 14.8536 87.3621 14.8477C87.3674 14.8417 87.3737 14.837 87.3806 14.8337C87.3876 14.8305 87.395 14.8289 87.4025 14.8289H95.7207C95.7369 14.8289 95.7523 14.8352 95.7637 14.8466C95.7751 14.858 95.7815 14.8734 95.7815 14.8895V16.4348C95.7815 16.4509 95.7751 16.4663 95.7637 16.4777C95.7523 16.489 95.7369 16.4954 95.7207 16.4954H89.1329C89.113 16.4954 89.0938 16.501 89.0797 16.511C89.0656 16.521 89.0576 16.5346 89.0576 16.5487Z" fill="#13407B"/>
<path d="M59.8052 22.1919C59.8052 22.6661 59.6165 23.1208 59.2806 23.4561C58.9447 23.7913 58.4891 23.9797 58.0141 23.9797H54.0723C53.5972 23.9797 53.1417 23.7913 52.8057 23.4561C52.4698 23.1208 52.2811 22.6661 52.2811 22.1919V18.3788C52.2811 17.9047 52.4698 17.45 52.8057 17.1147C53.1417 16.7794 53.5972 16.5911 54.0723 16.5911H58.0141C58.4891 16.5911 58.9447 16.7794 59.2806 17.1147C59.6165 17.45 59.8052 17.9047 59.8052 18.3788V22.1919ZM58.1195 18.3412C58.1195 18.3341 58.1181 18.327 58.1154 18.3204C58.1126 18.3137 58.1086 18.3077 58.1035 18.3026C58.0985 18.2976 58.0925 18.2935 58.0858 18.2908C58.0792 18.288 58.0721 18.2866 58.0649 18.2866L54.0357 18.2796C54.0286 18.2796 54.0214 18.281 54.0148 18.2837C54.0082 18.2864 54.0022 18.2904 53.9971 18.2955C53.992 18.3005 53.9879 18.3065 53.9852 18.3132C53.9824 18.3198 53.981 18.3269 53.981 18.334L53.9741 22.2538C53.9741 22.2609 53.9755 22.268 53.9783 22.2746C53.981 22.2813 53.985 22.2873 53.9901 22.2924C53.9951 22.2974 54.0012 22.3015 54.0078 22.3042C54.0144 22.307 54.0215 22.3084 54.0287 22.3084L58.0579 22.3154C58.0651 22.3154 58.0722 22.314 58.0788 22.3113C58.0854 22.3086 58.0915 22.3046 58.0966 22.2995C58.1016 22.2945 58.1057 22.2884 58.1084 22.2818C58.1112 22.2752 58.1126 22.2681 58.1126 22.261L58.1195 18.3412Z" fill="#13407B"/>
<path d="M71.3767 18.3135C71.3792 17.3172 72.2328 16.5876 73.2031 16.584C74.5251 16.5799 75.8479 16.5815 77.1716 16.5888C77.1877 16.5888 77.2031 16.5949 77.2145 16.6058C77.2259 16.6167 77.2323 16.6315 77.2323 16.647V18.1923C77.2323 18.2078 77.2253 18.2226 77.2127 18.2335C77.2002 18.2444 77.1832 18.2505 77.1655 18.2505C76.0127 18.2537 74.8615 18.2562 73.7119 18.2578C73.5071 18.2578 73.3043 18.2744 73.1035 18.3075C73.0865 18.3106 73.0711 18.319 73.06 18.3311C73.0489 18.3433 73.0428 18.3585 73.0428 18.3741V23.9192C73.0428 23.9353 73.0364 23.9507 73.025 23.9621C73.0136 23.9735 72.9982 23.9798 72.9821 23.9798H71.4338C71.4183 23.9798 71.4035 23.9728 71.3926 23.9603C71.3816 23.9478 71.3755 23.9309 71.3755 23.9132C71.3723 22.0458 71.3727 20.1793 71.3767 18.3135Z" fill="#13407B"/>
<path d="M85.7922 22.1932C85.7922 22.4278 85.7459 22.6601 85.656 22.8768C85.566 23.0936 85.4342 23.2905 85.2679 23.4564C85.1017 23.6223 84.9044 23.7539 84.6872 23.8437C84.4701 23.9335 84.2373 23.9797 84.0023 23.9797H80.0581C79.823 23.9797 79.5903 23.9335 79.3731 23.8437C79.1559 23.7539 78.9586 23.6223 78.7924 23.4564C78.6262 23.2905 78.4943 23.0936 78.4044 22.8768C78.3144 22.6601 78.2681 22.4278 78.2681 22.1932V18.3801C78.2681 17.9062 78.4567 17.4518 78.7924 17.1168C79.1281 16.7817 79.5833 16.5935 80.0581 16.5935H84.0023C84.477 16.5935 84.9323 16.7817 85.2679 17.1168C85.6036 17.4518 85.7922 17.9062 85.7922 18.3801V22.1932ZM84.1142 18.3558C84.1142 18.3458 84.1122 18.3359 84.1084 18.3266C84.1045 18.3174 84.0989 18.309 84.0917 18.3019C84.0846 18.2948 84.0762 18.2892 84.0669 18.2854C84.0576 18.2816 84.0477 18.2796 84.0376 18.2796L80.0375 18.2866C80.0275 18.2866 80.0176 18.2886 80.0083 18.2925C79.999 18.2963 79.9906 18.3019 79.9835 18.309C79.9764 18.3162 79.9708 18.3246 79.967 18.3338C79.9631 18.3431 79.9612 18.3531 79.9612 18.3631L79.968 22.2392C79.968 22.2492 79.97 22.2591 79.9738 22.2684C79.9777 22.2777 79.9833 22.2861 79.9905 22.2931C79.9976 22.3002 80.006 22.3058 80.0153 22.3096C80.0246 22.3135 80.0345 22.3154 80.0446 22.3154L84.0446 22.3084C84.0547 22.3084 84.0646 22.3064 84.0739 22.3026C84.0832 22.2987 84.0916 22.2931 84.0987 22.286C84.1058 22.2789 84.1114 22.2705 84.1152 22.2612C84.1191 22.2519 84.121 22.242 84.121 22.2319L84.1142 18.3558Z" fill="#13407B"/>
<path d="M104.007 22.1895C104.007 22.6643 103.818 23.1196 103.482 23.4554C103.146 23.7911 102.689 23.9797 102.214 23.9797H98.2769C97.8012 23.9797 97.345 23.7911 97.0086 23.4554C96.6722 23.1196 96.4833 22.6643 96.4833 22.1895V18.3813C96.4833 17.9065 96.6722 17.4511 97.0086 17.1154C97.345 16.7797 97.8012 16.5911 98.2769 16.5911H102.214C102.689 16.5911 103.146 16.7797 103.482 17.1154C103.818 17.4511 104.007 17.9065 104.007 18.3813V22.1895ZM102.336 18.3655C102.336 18.3551 102.334 18.3449 102.33 18.3353C102.326 18.3258 102.32 18.3171 102.313 18.3097C102.306 18.3024 102.297 18.2966 102.288 18.2926C102.278 18.2886 102.268 18.2866 102.257 18.2866L98.2622 18.2796C98.2518 18.2796 98.2415 18.2816 98.232 18.2855C98.2224 18.2895 98.2137 18.2953 98.2063 18.3026C98.199 18.3099 98.1931 18.3186 98.1892 18.3281C98.1852 18.3377 98.1831 18.3479 98.1831 18.3582L98.1763 22.2295C98.1763 22.2399 98.1783 22.2501 98.1823 22.2597C98.1862 22.2692 98.192 22.2779 98.1994 22.2853C98.2067 22.2926 98.2154 22.2984 98.2249 22.3024C98.2345 22.3064 98.2448 22.3084 98.2551 22.3084L102.25 22.3154C102.261 22.3154 102.271 22.3134 102.281 22.3094C102.29 22.3055 102.299 22.2997 102.306 22.2924C102.314 22.2851 102.319 22.2764 102.323 22.2669C102.327 22.2573 102.329 22.2471 102.329 22.2367L102.336 18.3655Z" fill="#13407B"/>
<path d="M105.378 18.3136C105.38 17.3282 106.21 16.6034 107.173 16.595C108.507 16.5845 109.84 16.5824 111.173 16.5889C111.189 16.5889 111.205 16.595 111.216 16.6059C111.228 16.6168 111.234 16.6316 111.234 16.6471V18.1924C111.234 18.2079 111.227 18.2227 111.215 18.2336C111.202 18.2445 111.186 18.2506 111.168 18.2506C110.005 18.2538 108.843 18.2559 107.682 18.2567C107.488 18.2567 107.295 18.2736 107.105 18.3076C107.088 18.3107 107.073 18.3191 107.062 18.3312C107.051 18.3434 107.044 18.3586 107.044 18.3742V23.9193C107.044 23.9354 107.038 23.9508 107.027 23.9622C107.015 23.9736 107 23.9799 106.984 23.9799H105.435C105.42 23.9799 105.405 23.9729 105.394 23.9604C105.383 23.9479 105.377 23.931 105.377 23.9133C105.374 22.0459 105.374 20.1794 105.378 18.3136Z" fill="#13407B"/>
</svg>
