<svg xmlns="http://www.w3.org/2000/svg" fill="none" viewBox="3.43 2.94 203.87 25.28">
<path d="M31.5695 2.94238L38.2423 2.94437C38.245 2.95165 38.2496 2.95645 38.2562 2.95877C38.2619 2.96091 38.2669 2.96351 38.2709 2.96636C38.2749 2.9692 38.2777 2.97221 38.2791 2.97515L44.9196 18.6953C44.9214 18.6997 44.9222 18.7044 44.9219 18.7091C44.9217 18.7139 44.9203 18.7185 44.918 18.7226C44.9157 18.7267 44.9125 18.7302 44.9087 18.7329C44.9048 18.7355 44.9004 18.7373 44.8958 18.738C37.6258 19.8809 30.3945 21.2316 23.202 22.7902C23.1828 22.7942 23.1769 22.7874 23.1842 22.7699L31.5695 2.94238ZM32.0409 18.2976C32.04 18.2998 32.0396 18.3023 32.0399 18.3047C32.0402 18.3071 32.041 18.3094 32.0424 18.3114C32.0438 18.3134 32.0456 18.3151 32.0478 18.3162C32.0499 18.3174 32.0523 18.3179 32.0548 18.3179L37.6334 18.3274C37.6358 18.3273 37.6381 18.3268 37.6402 18.3256C37.6423 18.3245 37.6441 18.323 37.6455 18.321C37.6468 18.3191 37.6477 18.3168 37.648 18.3145C37.6484 18.3121 37.6481 18.3097 37.6473 18.3075L34.8699 11.2272C34.8688 11.2245 34.8669 11.2222 34.8645 11.2206C34.8621 11.2189 34.8593 11.218 34.8564 11.218C34.8535 11.2179 34.8507 11.2187 34.8482 11.2203C34.8458 11.2218 34.8438 11.224 34.8426 11.2267L32.0409 18.2976Z" fill="#A7B838"/>
<path d="M87.6242 2.94434H88.2947C88.9606 2.97611 89.473 3.02096 89.8319 3.07888C95.2034 3.94624 99.3705 7.95285 100.376 13.3024C100.377 13.3066 100.377 13.3108 100.376 13.3149C100.375 13.319 100.373 13.3228 100.37 13.3261C100.368 13.3293 100.364 13.332 100.361 13.3339C100.357 13.3359 100.353 13.337 100.348 13.3372C92.0116 13.7036 83.6882 14.2694 75.3782 15.0347C75.3729 15.0352 75.3676 15.0345 75.3627 15.0328C75.3577 15.031 75.3532 15.0282 75.3494 15.0244C75.3455 15.0207 75.3426 15.0162 75.3406 15.0112C75.3386 15.0062 75.3377 15.0008 75.3379 14.9954C75.6836 8.33414 80.9653 3.16825 87.6242 2.94434Z" fill="#A7B838"/>
<path d="M134.658 2.94386L141.343 2.94336L145.676 13.1684C145.677 13.1733 145.678 13.1786 145.678 13.1838C145.677 13.1891 145.675 13.1941 145.672 13.1984C145.669 13.2028 145.665 13.2063 145.66 13.2087C145.656 13.2111 145.65 13.2122 145.645 13.2121L138.692 13.0051C138.682 13.0048 138.673 13.003 138.666 12.9999C138.659 12.9969 138.654 12.9928 138.653 12.9882L137.955 11.2143C137.95 11.2013 137.945 11.2015 137.94 11.2147L137.251 12.9485C137.248 12.956 137.243 12.9625 137.236 12.967C137.23 12.9716 137.222 12.9739 137.214 12.9738L130.484 12.8631C130.481 12.8631 130.479 12.8623 130.476 12.8608C130.474 12.8593 130.472 12.8572 130.47 12.8546C130.469 12.852 130.468 12.849 130.468 12.8459C130.468 12.8427 130.469 12.8396 130.47 12.8368L134.658 2.94386Z" fill="#A7B838"/>
<path d="M189.949 2.94289L196.637 2.94189L202.897 17.748C202.899 17.751 202.899 17.7543 202.899 17.7575C202.898 17.7607 202.897 17.7638 202.894 17.7664C202.892 17.769 202.889 17.771 202.886 17.7722C202.882 17.7734 202.879 17.7738 202.875 17.7733L195.496 16.9074C195.49 16.9067 195.484 16.9037 195.478 16.8988C195.473 16.8939 195.469 16.8873 195.466 16.8796L193.253 11.2331C193.243 11.207 193.232 11.2067 193.222 11.2321L191.173 16.3951C191.168 16.4068 191.16 16.4168 191.15 16.4234C191.14 16.43 191.128 16.433 191.116 16.4318L184.551 15.771C184.547 15.7706 184.544 15.7695 184.541 15.7676C184.538 15.7658 184.536 15.7633 184.534 15.7604C184.532 15.7575 184.531 15.7543 184.531 15.7509C184.531 15.7476 184.532 15.7443 184.533 15.7412L189.949 2.94289Z" fill="#A7B838"/>
<path d="M3.43488 27.7777V3.12739C7.00696 3.11415 10.5789 3.10935 14.1506 3.11299C18.4285 3.11697 23.0287 4.74145 24.2729 9.32398C24.6086 10.5609 24.6993 11.8557 24.545 13.2085C24.1348 16.8124 21.861 19.2392 18.4965 20.3588C15.9163 21.2177 13.1235 21.0494 10.4141 21.039C10.4073 21.039 10.4007 21.0418 10.3959 21.0468C10.391 21.0519 10.3883 21.0587 10.3883 21.0658V25.8568C10.3883 25.8641 10.3863 25.871 10.3825 25.8766C10.3787 25.8822 10.3734 25.886 10.3675 25.8876C8.06156 26.4983 5.76627 27.1469 3.48156 27.8333C3.47518 27.8352 3.46831 27.8346 3.46232 27.8315C3.45633 27.8285 3.45167 27.8233 3.44928 27.8169L3.43488 27.7777ZM17.6467 12.6072C17.8499 10.0116 15.9516 8.99035 13.6753 8.97049C12.5853 8.96089 11.4971 8.95973 10.4107 8.96701C10.4047 8.96701 10.3991 8.96931 10.3949 8.97341C10.3907 8.97751 10.3883 8.98306 10.3883 8.98886V15.5672C10.3883 15.5739 10.3911 15.5802 10.396 15.585C10.4009 15.5897 10.4076 15.5924 10.4146 15.5926C11.958 15.6207 13.1566 15.6189 14.0106 15.5871C15.8175 15.5201 17.4918 14.5822 17.6467 12.6072Z" fill="#A7B838"/>
<path d="M56.1072 14.537V17.0939C56.1072 17.0992 56.1046 17.1044 56.0999 17.1085C56.0952 17.1126 56.0888 17.1154 56.0819 17.1162C53.8002 17.4181 51.5208 17.7365 49.2437 18.0715C49.2418 18.0717 49.2399 18.0716 49.238 18.0711C49.2362 18.0707 49.2345 18.0698 49.233 18.0686C49.2316 18.0675 49.2304 18.066 49.2296 18.0643C49.2288 18.0627 49.2283 18.0609 49.2283 18.059V3.14274C49.2283 3.13616 49.2309 3.12985 49.2355 3.12519C49.2402 3.12054 49.2465 3.11792 49.2531 3.11792H55.6602C55.6762 3.11793 55.6919 3.1216 55.7063 3.12865C55.7207 3.13571 55.7333 3.14596 55.7432 3.15863L65.6732 15.9212C65.6897 15.9424 65.6851 15.9545 65.6593 15.9574C63.11 16.2411 60.5632 16.5438 58.0189 16.8655C58.0098 16.8667 58.0011 16.8668 57.9941 16.8658C57.9872 16.8648 57.9821 16.8628 57.9797 16.86L56.1544 14.5152C56.1229 14.4748 56.1072 14.4821 56.1072 14.537Z" fill="#A7B838"/>
<path d="M66.0283 3.13977C66.0283 3.13397 66.0309 3.12842 66.0355 3.12432C66.0402 3.12022 66.0465 3.11792 66.0531 3.11792H72.8203C72.8858 3.11792 72.9186 3.15102 72.9186 3.21722L72.9191 15.17C72.9191 15.1809 72.9154 15.1913 72.9087 15.1993C72.902 15.2072 72.8928 15.2122 72.8829 15.2132L66.0442 15.9137C66.0422 15.914 66.0402 15.9139 66.0382 15.9133C66.0363 15.9127 66.0345 15.9117 66.033 15.9103C66.0315 15.9089 66.0303 15.9073 66.0295 15.9054C66.0287 15.9035 66.0282 15.9014 66.0283 15.8994V3.13977Z" fill="#A7B838"/>
<path d="M109.785 9.17503V12.9979C109.785 13.0032 109.783 13.0082 109.778 13.012C109.773 13.0158 109.767 13.018 109.76 13.0183L102.857 13.2372C102.853 13.2373 102.85 13.2366 102.847 13.2352C102.844 13.2338 102.841 13.2318 102.839 13.2291C102.837 13.2265 102.835 13.2234 102.834 13.2199C102.833 13.2164 102.832 13.2127 102.832 13.2089V3.14277C102.832 3.13671 102.835 3.1309 102.84 3.12662C102.844 3.12234 102.851 3.11993 102.858 3.11993C106.795 3.11662 110.73 3.11695 114.665 3.12093C116.383 3.12291 118.119 3.31902 119.746 3.89444C122.291 4.79506 124.289 6.81972 124.857 9.49873C125.087 10.584 125.144 11.6874 125.026 12.8088C125.025 12.8166 125.021 12.8238 125.016 12.8291C125.01 12.8344 125.003 12.8374 124.996 12.8376L118.055 12.8669C118.052 12.867 118.05 12.8663 118.047 12.865C118.045 12.8636 118.043 12.8616 118.041 12.859C118.039 12.8565 118.038 12.8535 118.037 12.8502C118.037 12.8469 118.037 12.8434 118.037 12.8401C118.266 11.4718 117.866 10.1893 116.549 9.58016C115.672 9.17453 114.741 9.12836 113.792 9.14077C112.466 9.15864 111.14 9.14871 109.813 9.15318C109.806 9.15318 109.799 9.15548 109.793 9.15958C109.788 9.16368 109.785 9.16923 109.785 9.17503Z" fill="#A7B838"/>
<path d="M172.072 13.8543C172.072 13.8173 172.061 13.8159 172.039 13.8504L171.522 14.6378C171.519 14.6423 171.514 14.6458 171.508 14.6481C171.501 14.6504 171.493 14.6513 171.485 14.6507C165.112 14.1668 158.734 13.7776 152.35 13.483C152.34 13.4825 152.331 13.4782 152.324 13.4711C152.317 13.464 152.313 13.4545 152.313 13.4447V3.14274C152.313 3.13616 152.316 3.12985 152.32 3.12519C152.325 3.12054 152.331 3.11792 152.338 3.11792H159.627C159.637 3.11791 159.647 3.12023 159.655 3.12467C159.664 3.12911 159.671 3.13551 159.676 3.14324L165.624 12.7998C165.627 12.8035 165.63 12.8065 165.634 12.8084C165.638 12.8104 165.642 12.8112 165.647 12.8109C165.652 12.8105 165.656 12.809 165.66 12.8065C165.665 12.8039 165.668 12.8004 165.671 12.7963L171.619 3.14026C171.623 3.13346 171.629 3.12782 171.636 3.12391C171.643 3.11999 171.651 3.11793 171.659 3.11792H178.947C178.954 3.11792 178.96 3.12064 178.965 3.12548C178.969 3.13032 178.972 3.13689 178.972 3.14374C178.972 7.09937 178.974 11.0378 178.979 14.959C178.979 15.0418 178.981 15.1258 178.986 15.2112C178.987 15.2174 178.986 15.2236 178.983 15.2293C178.981 15.235 178.977 15.2402 178.972 15.2445C178.967 15.2488 178.961 15.2521 178.955 15.2541C178.948 15.2562 178.942 15.257 178.935 15.2564L172.084 14.6949C172.077 14.6942 172.071 14.6913 172.067 14.6868C172.062 14.6823 172.06 14.6765 172.06 14.6706L172.072 13.8543Z" fill="#A7B838"/>
<path d="M152.023 28.2101L144.574 28.2151L142.756 23.7552C142.753 23.7491 142.749 23.7438 142.744 23.7401C142.739 23.7364 142.733 23.7344 142.727 23.7344H133.104C133.097 23.7343 133.09 23.7365 133.085 23.7407C133.079 23.7449 133.074 23.7508 133.071 23.7577L131.277 28.2156L117.878 28.2151L112.847 20.6452C112.841 20.637 112.834 20.6302 112.827 20.6256C112.819 20.6209 112.811 20.6184 112.803 20.6184L109.823 20.6169C109.813 20.6169 109.803 20.6216 109.796 20.6297C109.789 20.6379 109.785 20.6491 109.785 20.6606L109.775 28.2151H102.841L102.835 15.7931C102.835 15.7849 102.838 15.7769 102.844 15.771C102.85 15.7651 102.857 15.7616 102.866 15.7614C110.008 15.4641 117.145 15.2758 124.276 15.1964C124.317 15.196 124.353 15.1921 124.383 15.1844C124.416 15.1762 124.426 15.1878 124.412 15.2192C123.549 17.1967 121.922 18.634 119.951 19.4542C119.948 19.4555 119.945 19.4576 119.943 19.4603C119.94 19.463 119.938 19.4663 119.938 19.4698C119.937 19.4733 119.936 19.4771 119.937 19.4807C119.938 19.4844 119.939 19.4879 119.941 19.4909L124.683 26.4178C124.703 26.447 124.72 26.4453 124.734 26.4129L129.482 15.1735C129.486 15.1659 129.491 15.1594 129.497 15.1548C129.503 15.1502 129.509 15.1477 129.516 15.1477L136.357 15.1556C136.359 15.1557 136.361 15.1565 136.363 15.1579C136.365 15.1594 136.366 15.1614 136.367 15.1639C136.368 15.1663 136.368 15.1692 136.368 15.1721C136.368 15.1751 136.367 15.1781 136.366 15.181L135.131 18.2989C135.13 18.3015 135.129 18.3044 135.13 18.3072C135.131 18.3101 135.132 18.3128 135.134 18.3151C135.136 18.3175 135.139 18.3194 135.143 18.3207C135.146 18.322 135.149 18.3227 135.153 18.3227H140.703C140.708 18.3228 140.712 18.3217 140.715 18.3197C140.719 18.3177 140.722 18.3147 140.725 18.3111C140.727 18.3074 140.729 18.3033 140.729 18.2989C140.729 18.2945 140.729 18.2901 140.727 18.286L139.524 15.2073C139.523 15.2044 139.522 15.2012 139.522 15.1981C139.522 15.1949 139.523 15.1919 139.524 15.1893C139.525 15.1867 139.527 15.1846 139.529 15.1832C139.531 15.1817 139.534 15.1809 139.536 15.181L146.527 15.2818C146.539 15.2819 146.55 15.2855 146.56 15.292C146.57 15.2986 146.578 15.3078 146.582 15.3185L152.023 28.2101Z" fill="#0E83A6"/>
<path d="M159.12 28.2151H152.322L152.316 15.464C152.316 15.4573 152.317 15.4506 152.32 15.4444C152.322 15.4383 152.325 15.4327 152.33 15.428C152.334 15.4233 152.339 15.4196 152.345 15.4172C152.351 15.4148 152.357 15.4136 152.363 15.4138L159.105 15.6303C159.112 15.6306 159.118 15.6339 159.123 15.6395C159.127 15.6452 159.13 15.6527 159.13 15.6606L159.12 28.2151Z" fill="#0E83A6"/>
<path d="M165.545 23.6256C165.512 23.617 165.484 23.5972 165.466 23.57L160.326 15.7127C160.324 15.7103 160.323 15.7075 160.323 15.7046C160.323 15.7018 160.323 15.6989 160.324 15.6963C160.325 15.6937 160.326 15.6915 160.329 15.6898C160.331 15.6882 160.333 15.6871 160.336 15.6869C160.393 15.6812 160.489 15.6809 160.623 15.6859C163.914 15.8106 167.208 15.9578 170.506 16.1272C170.531 16.1282 170.537 16.1393 170.523 16.1605C168.914 18.6283 167.301 21.0985 165.685 23.571C165.651 23.6223 165.604 23.6405 165.545 23.6256Z" fill="#0E83A6"/>
<path d="M88.2639 28.2152H87.6182C81.523 28.0196 76.444 23.588 75.478 17.5687C75.4769 17.5618 75.4772 17.5547 75.4791 17.5479C75.481 17.5412 75.4843 17.5348 75.4888 17.5292C75.4934 17.5237 75.4991 17.5191 75.5057 17.5157C75.5122 17.5123 75.5193 17.5102 75.5267 17.5096C83.8566 16.8043 92.1967 16.2565 100.547 15.8662C100.551 15.8661 100.554 15.8668 100.558 15.8683C100.561 15.8699 100.564 15.8722 100.566 15.8752C100.569 15.8782 100.571 15.8817 100.572 15.8857C100.573 15.8896 100.574 15.8938 100.574 15.898C100.468 19.4022 98.9648 22.7137 96.3279 25.0333C94.0492 27.0381 91.3612 28.0987 88.2639 28.2152Z" fill="#0E83A6"/>
<path d="M178.972 28.2153H172.065L172.059 16.262C172.059 16.2548 172.06 16.2476 172.063 16.241C172.066 16.2344 172.071 16.2284 172.076 16.2235C172.082 16.2185 172.088 16.2147 172.096 16.2123C172.103 16.2099 172.11 16.2089 172.118 16.2093L178.947 16.6045C178.953 16.6049 178.958 16.6079 178.962 16.6129C178.966 16.6178 178.969 16.6244 178.969 16.6314L178.972 28.2153Z" fill="#0E83A6"/>
<path d="M207.292 28.2151H199.867L198.05 23.7592C198.047 23.7519 198.042 23.7456 198.037 23.7412C198.031 23.7367 198.025 23.7344 198.02 23.7344H188.409C188.395 23.7344 188.382 23.739 188.37 23.7476C188.358 23.7562 188.349 23.7683 188.343 23.7825L186.568 28.2151L179.27 28.2111L184.019 16.9589C184.021 16.9528 184.026 16.9477 184.031 16.9442C184.037 16.9407 184.043 16.9391 184.05 16.9395L190.743 17.431C190.746 17.4312 190.748 17.4319 190.75 17.4333C190.751 17.4347 190.753 17.4366 190.754 17.4389C190.755 17.4412 190.756 17.4439 190.756 17.4467C190.756 17.4494 190.755 17.4523 190.754 17.4549L190.419 18.2974C190.418 18.3002 190.418 18.3033 190.419 18.3063C190.42 18.3093 190.421 18.3122 190.424 18.3147C190.426 18.3172 190.43 18.3192 190.433 18.3206C190.437 18.322 190.441 18.3227 190.445 18.3227H195.996C196 18.3227 196.004 18.322 196.008 18.3206C196.011 18.3192 196.015 18.3171 196.017 18.3146C196.02 18.3121 196.022 18.3092 196.023 18.3062C196.023 18.3032 196.023 18.3002 196.022 18.2974L195.864 17.8967C195.862 17.8912 195.861 17.8852 195.862 17.8793C195.863 17.8734 195.864 17.8678 195.868 17.863C195.871 17.8582 195.875 17.8544 195.88 17.852C195.885 17.8495 195.891 17.8485 195.896 17.8491L203.184 18.4995C203.194 18.5004 203.203 18.5033 203.211 18.5081C203.218 18.5128 203.224 18.5191 203.227 18.5263L207.305 28.1789C207.306 28.1825 207.307 28.1866 207.306 28.1908C207.306 28.195 207.304 28.1991 207.301 28.2027L207.292 28.2151Z" fill="#0E83A6"/>
<path d="M72.9008 28.2153L66.8289 28.2182L59.6604 19.0149C59.6475 18.9987 59.6522 18.9893 59.6744 18.9866C64.0722 18.5074 68.4749 18.0751 72.8824 17.6898C72.8871 17.6894 72.8919 17.6899 72.8964 17.6913C72.9009 17.6927 72.905 17.6949 72.9085 17.6979C72.912 17.7008 72.9148 17.7044 72.9167 17.7084C72.9186 17.7124 72.9196 17.7167 72.9197 17.7211L72.9008 28.2153Z" fill="#0E83A6"/>
<path d="M56.1042 28.2152H49.2377L49.2313 20.2482C49.2313 20.2408 49.2334 20.2337 49.2374 20.2282C49.2413 20.2228 49.2467 20.2193 49.2526 20.2184L56.0824 19.3903C56.0853 19.3899 56.0882 19.3903 56.0909 19.3915C56.0937 19.3926 56.0962 19.3945 56.0984 19.3969C56.1006 19.3993 56.1023 19.4023 56.1035 19.4056C56.1046 19.4089 56.1052 19.4125 56.1052 19.4161L56.1042 28.2152Z" fill="#0E83A6"/>
<path d="M48.8776 28.2153H41.4772L39.6683 23.7618C39.6649 23.7537 39.6595 23.7469 39.6527 23.742C39.6458 23.7371 39.638 23.7345 39.63 23.7345H30.0194C30.0112 23.7345 30.0031 23.737 29.9962 23.7418C29.9893 23.7466 29.9839 23.7534 29.9806 23.7613L28.1822 28.2167L20.89 28.2153L22.5201 24.3506C22.5259 24.3368 22.5353 24.3246 22.5476 24.3151C22.5598 24.3057 22.5745 24.2993 22.5901 24.2965C30.2783 22.912 37.9945 21.706 45.7386 20.6787C45.7438 20.678 45.7491 20.6791 45.7536 20.6818C45.7582 20.6845 45.7618 20.6886 45.764 20.6936L48.9258 28.18C48.9267 28.182 48.927 28.1842 48.9267 28.1864C48.9263 28.1887 48.9254 28.1909 48.9239 28.1929C48.9224 28.1949 48.9205 28.1966 48.9181 28.198C48.9158 28.1994 48.9131 28.2004 48.9104 28.2009C48.8998 28.2028 48.8889 28.2076 48.8776 28.2153Z" fill="#0E83A6"/>
<path d="M10.3729 28.2151H3.87892L3.73638 28.1972C3.72379 28.1956 3.72197 28.1937 3.73091 28.1918C5.92787 27.6738 8.13029 27.1798 10.3382 26.7098C10.3437 26.7086 10.3493 26.7087 10.3548 26.7101C10.3603 26.7115 10.3654 26.7142 10.3698 26.7179C10.3742 26.7216 10.3778 26.7262 10.3803 26.7315C10.3828 26.7368 10.3842 26.7426 10.3844 26.7485C10.3973 27.2268 10.3935 27.7156 10.3729 28.2151Z" fill="#0E83A6"/>
</svg>