<svg xmlns="http://www.w3.org/2000/svg" viewBox="0 0 1049 420" width="1049" height="420" style="width: 100%; height: 100%; transform: translate3d(0px, 0px, 0px);" preserveAspectRatio="xMidYMid meet"><defs><clipPath id="__lottie_element_2"><rect width="1049" height="420" x="0" y="0"></rect></clipPath><clipPath id="__lottie_element_4"><path d="M0,0 L1040,0 L1040,412 L0,412z"></path></clipPath></defs><g clip-path="url(#__lottie_element_2)"><g clip-path="url(#__lottie_element_4)" style="display: block;" transform="matrix(1,0,0,1,6.0780029296875,2.4219970703125)" opacity="1"><g style="display: block;"><g transform="matrix(1.1100000143051147,0,0,1.1100000143051147,215.19471740722656,76.40806579589844)" opacity="1"><g opacity="1" transform="matrix(1,0,0,1,0,0)"><path stroke-linecap="round" stroke-linejoin="miter" fill-opacity="0" stroke-miterlimit="10" stroke="rgb(87,204,171)" stroke-opacity="1" stroke-width="8" d=" M0,62.20399856567383 C0,62.20399856567383 0,-23.863000869750977 0,-52.82400131225586"></path></g></g></g><g style="display: block;"><g transform="matrix(1.1100000143051147,0,0,1.1100000143051147,236.5777587890625,93.39216613769531)" opacity="1"><g opacity="1" transform="matrix(1,0,0,1,0,0)"><path stroke-linecap="round" stroke-linejoin="miter" fill-opacity="0" stroke-miterlimit="10" stroke="rgb(87,204,171)" stroke-opacity="1" stroke-width="8" d=" M-9.781999588012695,54.441001892089844 C-9.781999588012695,54.441001892089844 9.781999588012695,-54.441001892089844 9.781999588012695,-54.441001892089844"></path></g></g></g><g style="display: block;"><g transform="matrix(1.1100000143051147,0,0,1.1100000143051147,252.60171508789062,112.50304412841797)" opacity="1"><g opacity="1" transform="matrix(1,0,0,1,0,0)"><path stroke-linecap="round" stroke-linejoin="miter" fill-opacity="0" stroke-miterlimit="10" stroke="rgb(87,204,171)" stroke-opacity="1" stroke-width="8" d=" M-14.942000389099121,40.57699966430664 C-14.942000389099121,40.57699966430664 14.942000389099121,-40.57699966430664 14.942000389099121,-40.57699966430664"></path></g></g></g><g style="display: block;"><g transform="matrix(1.1100000143051147,0,0,1.1100000143051147,269.1762390136719,121.34973907470703)" opacity="1"><g opacity="1" transform="matrix(1,0,0,1,0,0)"><path stroke-linecap="round" stroke-linejoin="miter" fill-opacity="0" stroke-miterlimit="10" stroke="rgb(87,204,171)" stroke-opacity="1" stroke-width="8" d=" M-22.47800064086914,38.07099914550781 C-22.47800064086914,38.07099914550781 22.47800064086914,-38.07099914550781 22.47800064086914,-38.07099914550781"></path></g></g></g><g style="display: block;"><g transform="matrix(1.1100000143051147,0,0,1.1100000143051147,301.8790588378906,112.31767272949219)" opacity="1"><g opacity="1" transform="matrix(1,0,0,1,0,0)"><path stroke-linecap="round" stroke-linejoin="miter" fill-opacity="0" stroke-miterlimit="10" stroke="rgb(87,204,171)" stroke-opacity="1" stroke-width="8" d=" M-43.61899948120117,52.861000061035156 C-43.61899948120117,52.861000061035156 43.61899948120117,-52.861000061035156 43.61899948120117,-52.861000061035156"></path></g></g></g><g style="display: block;"><g transform="matrix(1.1100000143051147,0,0,1.1100000143051147,310.40386962890625,135.73756408691406)" opacity="1"><g opacity="1" transform="matrix(1,0,0,1,0,0)"><path stroke-linecap="round" stroke-linejoin="miter" fill-opacity="0" stroke-miterlimit="10" stroke="rgb(87,204,171)" stroke-opacity="1" stroke-width="8" d=" M-44.722999572753906,38.18000030517578 C-44.722999572753906,38.18000030517578 30.224000930786133,-25.80299949645996 42.90999984741211,-36.63199996948242"></path></g></g></g><g style="display: block;"><g transform="matrix(1.1100000143051147,0,0,1.1100000143051147,310.5426025390625,161.1809844970703)" opacity="1"><g opacity="1" transform="matrix(1,0,0,1,0,0)"><path stroke-linecap="round" stroke-linejoin="miter" fill-opacity="0" stroke-miterlimit="10" stroke="rgb(87,204,171)" stroke-opacity="1" stroke-width="8" d=" M-37.266998291015625,21.898000717163086 C-37.266998291015625,21.898000717163086 37.266998291015625,-21.898000717163086 37.266998291015625,-21.898000717163086"></path></g></g></g><g style="display: block;"><g transform="matrix(1.1100000143051147,0,0,1.1100000143051147,319.80889892578125,177.58567810058594)" opacity="1"><g opacity="1" transform="matrix(1,0,0,1,0,0)"><path stroke-linecap="round" stroke-linejoin="miter" fill-opacity="0" stroke-miterlimit="10" stroke="rgb(87,204,171)" stroke-opacity="1" stroke-width="8" d=" M-39.395999908447266,14.210000038146973 C-39.395999908447266,14.210000038146973 39.395999908447266,-14.210000038146973 39.395999908447266,-14.210000038146973"></path></g></g></g><g style="display: block;"><g transform="matrix(1.1100000143051147,0,0,1.1100000143051147,316.4211730957031,197.4513397216797)" opacity="1"><g opacity="1" transform="matrix(1,0,0,1,0,0)"><path stroke-linecap="round" stroke-linejoin="miter" fill-opacity="0" stroke-miterlimit="10" stroke="rgb(87,204,171)" stroke-opacity="1" stroke-width="8" d=" M-30.51799964904785,5.388000011444092 C-30.51799964904785,5.388000011444092 30.51799964904785,-5.388000011444092 30.51799964904785,-5.388000011444092"></path></g></g></g><g style="display: block;"><g transform="matrix(1.1100000143051147,0,0,1.1100000143051147,329.4947509765625,215.80519104003906)" opacity="1"><g opacity="1" transform="matrix(1,0,0,1,0,0)"><path stroke-linecap="round" stroke-linejoin="miter" fill-opacity="0" stroke-miterlimit="10" stroke="rgb(87,204,171)" stroke-opacity="1" stroke-width="8" d=" M-37.80400085449219,0 C-37.80400085449219,0 6.5970001220703125,0 27.347999572753906,0"></path></g></g></g><g style="display: block;"><g transform="matrix(1.1100000143051147,0,0,1.1100000143051147,338.0018005371094,237.4979248046875)" opacity="1"><g opacity="1" transform="matrix(1,0,0,1,0,0)"><path stroke-linecap="round" stroke-linejoin="miter" fill-opacity="0" stroke-miterlimit="10" stroke="rgb(87,204,171)" stroke-opacity="1" stroke-width="8" d=" M-43.790000915527344,-7.686999797821045 C-43.790000915527344,-7.686999797821045 -9.60200023651123,-1.6859999895095825 16.054000854492188,2.818000078201294"></path></g></g></g><g style="display: block;"><g transform="matrix(1.1100000143051147,0,0,1.1100000143051147,328.1383361816406,257.4490661621094)" opacity="1"><g opacity="1" transform="matrix(1,0,0,1,0,0)"><path stroke-linecap="round" stroke-linejoin="miter" fill-opacity="0" stroke-miterlimit="10" stroke="rgb(87,204,171)" stroke-opacity="1" stroke-width="8" d=" M-34.77799987792969,-12.651000022888184 C-34.77799987792969,-12.651000022888184 -16.572999954223633,-6.0289998054504395 1.2100000381469727,0.4399999976158142"></path></g></g></g><g style="display: block;"><g transform="matrix(1.1100000143051147,0,0,1.1100000143051147,318.7699279785156,276.6587219238281)" opacity="1"><g opacity="1" transform="matrix(1,0,0,1,0,0)"><path stroke-linecap="round" stroke-linejoin="miter" fill-opacity="0" stroke-miterlimit="10" stroke="rgb(87,204,171)" stroke-opacity="1" stroke-width="8" d=" M-29.47100067138672,-17.257999420166016 C-29.47100067138672,-17.257999420166016 29.47100067138672,17.257999420166016 29.47100067138672,17.257999420166016"></path></g></g></g><g style="display: block;"><g transform="matrix(1.1100000143051147,0,0,1.1100000143051147,319.7300720214844,303.4918518066406)" opacity="1"><g opacity="1" transform="matrix(1,0,0,1,0,0)"><path stroke-linecap="round" stroke-linejoin="miter" fill-opacity="0" stroke-miterlimit="10" stroke="rgb(87,204,171)" stroke-opacity="1" stroke-width="8" d=" M-35.375,-29.708999633789062 C-35.375,-29.708999633789062 35.375,29.708999633789062 35.375,29.708999633789062"></path></g></g></g><g style="display: block;"><g transform="matrix(1.1100000143051147,0,0,1.1100000143051147,293.7205505371094,309.1351013183594)" opacity="1"><g opacity="1" transform="matrix(1,0,0,1,0,0)"><path stroke-linecap="round" stroke-linejoin="miter" fill-opacity="0" stroke-miterlimit="10" stroke="rgb(87,204,171)" stroke-opacity="1" stroke-width="8" d=" M-20.673999786376953,-24.865999221801758 C-20.673999786376953,-24.865999221801758 20.673999786376953,24.865999221801758 20.673999786376953,24.865999221801758"></path></g></g></g><g style="display: block;"><g transform="matrix(1.1100000143051147,0,0,1.1100000143051147,276.451171875,322.2242431640625)" opacity="1"><g opacity="1" transform="matrix(1,0,0,1,0,0)"><path stroke-linecap="round" stroke-linejoin="miter" fill-opacity="0" stroke-miterlimit="10" stroke="rgb(87,204,171)" stroke-opacity="1" stroke-width="8" d=" M-15.923999786376953,-27.29199981689453 C-15.923999786376953,-27.29199981689453 1.3240000009536743,2.2690000534057617 10.434000015258789,17.882999420166016"></path></g></g></g><g style="display: block;"><g transform="matrix(1.1100000143051147,0,0,1.1100000143051147,263.27215576171875,347.652099609375)" opacity="1"><g opacity="1" transform="matrix(1,0,0,1,0,0)"><path stroke-linecap="round" stroke-linejoin="miter" fill-opacity="0" stroke-miterlimit="10" stroke="rgb(87,204,171)" stroke-opacity="1" stroke-width="8" d=" M-16.30900001525879,-45.027000427246094 C-16.30900001525879,-45.027000427246094 16.30900001525879,45.027000427246094 16.30900001525879,45.027000427246094"></path></g></g></g><g style="display: block;"><g transform="matrix(1.1100000143051147,0,0,1.1100000143051147,236.64768981933594,336.1036682128906)" opacity="1"><g opacity="1" transform="matrix(1,0,0,1,0,0)"><path stroke-linecap="round" stroke-linejoin="miter" fill-opacity="0" stroke-miterlimit="10" stroke="rgb(87,204,171)" stroke-opacity="1" stroke-width="8" d=" M-5.369999885559082,-31.68199920654297 C-5.369999885559082,-31.68199920654297 0.9169999957084656,5.410999774932861 3.871000051498413,22.836000442504883"></path></g></g></g><g style="display: block;"><g transform="matrix(1.1100000143051147,0,0,1.1100000143051147,215.55657958984375,350.3826904296875)" opacity="1"><g opacity="1" transform="matrix(1,0,0,1,0,0)"><path stroke-linecap="round" stroke-linejoin="miter" fill-opacity="0" stroke-miterlimit="10" stroke="rgb(87,204,171)" stroke-opacity="1" stroke-width="8" d=" M0.32499998807907104,-44.54600143432617 C0.32499998807907104,-44.54600143432617 -0.32499998807907104,44.54600143432617 -0.32499998807907104,44.54600143432617"></path></g></g></g><g style="display: block;"><g transform="matrix(1.1100000143051147,0,0,1.1100000143051147,191.5750274658203,351.36395263671875)" opacity="1"><g opacity="1" transform="matrix(1,0,0,1,0,0)"><path stroke-linecap="round" stroke-linejoin="miter" fill-opacity="0" stroke-miterlimit="10" stroke="rgb(87,204,171)" stroke-opacity="1" stroke-width="8" d=" M8.782999992370605,-48.369998931884766 C8.782999992370605,-48.369998931884766 -0.6029999852180481,3.319000005722046 -5.6529998779296875,31.131000518798828"></path></g></g></g><g style="display: block;"><g transform="matrix(1.1100000143051147,0,0,1.1100000143051147,170.52609252929688,338.94970703125)" opacity="1"><g opacity="1" transform="matrix(1,0,0,1,0,0)"><path stroke-linecap="round" stroke-linejoin="miter" fill-opacity="0" stroke-miterlimit="10" stroke="rgb(87,204,171)" stroke-opacity="1" stroke-width="8" d=" M15.553999900817871,-42.36000061035156 C15.553999900817871,-42.36000061035156 -15.553999900817871,42.36000061035156 -15.553999900817871,42.36000061035156"></path></g></g></g><g style="display: block;"><g transform="matrix(1.1100000143051147,0,0,1.1100000143051147,154.93836975097656,320.2450866699219)" opacity="1"><g opacity="1" transform="matrix(1,0,0,1,0,0)"><path stroke-linecap="round" stroke-linejoin="miter" fill-opacity="0" stroke-miterlimit="10" stroke="rgb(87,204,171)" stroke-opacity="1" stroke-width="8" d=" M19.63800048828125,-33.94900131225586 C19.63800048828125,-33.94900131225586 -7.388000011444092,12.772000312805176 -16.60300064086914,28.70199966430664"></path></g></g></g><g style="display: block;"><g transform="matrix(1.1100000143051147,0,0,1.1100000143051147,131.97024536132812,315.11468505859375)" opacity="1"><g opacity="1" transform="matrix(1,0,0,1,0,0)"><path stroke-linecap="round" stroke-linejoin="miter" fill-opacity="0" stroke-miterlimit="10" stroke="rgb(87,204,171)" stroke-opacity="1" stroke-width="8" d=" M32.12200164794922,-38.16699981689453 C32.12200164794922,-38.16699981689453 -4.089000225067139,4.857999801635742 -22.138999938964844,26.30500030517578"></path></g></g></g><g style="display: block;"><g transform="matrix(1.1100000143051147,0,0,1.1100000143051147,125.40904235839844,292.4873046875)" opacity="1"><g opacity="1" transform="matrix(1,0,0,1,0,0)"><path stroke-linecap="round" stroke-linejoin="miter" fill-opacity="0" stroke-miterlimit="10" stroke="rgb(87,204,171)" stroke-opacity="1" stroke-width="8" d=" M32.402000427246094,-27.77400016784668 C32.402000427246094,-27.77400016784668 4.388999938964844,-3.76200008392334 -14.800999641418457,12.687000274658203"></path></g></g></g><g style="display: block;"><g transform="matrix(1.1100000143051147,0,0,1.1100000143051147,118.90998077392578,271.5038757324219)" opacity="1"><g opacity="1" transform="matrix(1,0,0,1,0,0)"><path stroke-linecap="round" stroke-linejoin="miter" fill-opacity="0" stroke-miterlimit="10" stroke="rgb(87,204,171)" stroke-opacity="1" stroke-width="8" d=" M32.952999114990234,-18.92799949645996 C32.952999114990234,-18.92799949645996 -32.952999114990234,18.92799949645996 -32.952999114990234,18.92799949645996"></path></g></g></g><g style="display: block;"><g transform="matrix(1.1100000143051147,0,0,1.1100000143051147,97.76337432861328,258.8032531738281)" opacity="1"><g opacity="1" transform="matrix(1,0,0,1,0,0)"><path stroke-linecap="round" stroke-linejoin="miter" fill-opacity="0" stroke-miterlimit="10" stroke="rgb(87,204,171)" stroke-opacity="1" stroke-width="8" d=" M47.54199981689453,-17.072999954223633 C47.54199981689453,-17.072999954223633 -1,0.35899999737739563 -28.716999053955078,10.312999725341797"></path></g></g></g><g style="display: block;"><g transform="matrix(1.1100000143051147,0,0,1.1100000143051147,76.93978118896484,239.63467407226562)" opacity="1"><g opacity="1" transform="matrix(1,0,0,1,0,0)"><path stroke-linecap="round" stroke-linejoin="miter" fill-opacity="0" stroke-miterlimit="10" stroke="rgb(87,204,171)" stroke-opacity="1" stroke-width="8" d=" M61.47100067138672,-11.572999954223633 C61.47100067138672,-11.572999954223633 -61.47100067138672,11.572999954223633 -61.47100067138672,11.572999954223633"></path></g></g></g><g style="display: block;"><g transform="matrix(1.1100000143051147,0,0,1.1100000143051147,81.60065460205078,215.80519104003906)" opacity="1"><g opacity="1" transform="matrix(1,0,0,1,0,0)"><path stroke-linecap="round" stroke-linejoin="miter" fill-opacity="0" stroke-miterlimit="10" stroke="rgb(87,204,171)" stroke-opacity="1" stroke-width="8" d=" M53.70000076293945,0 C53.70000076293945,0 12.437999725341797,0 -18.934999465942383,0"></path></g></g></g><g style="display: block;"><g transform="matrix(1.1100000143051147,0,0,1.1100000143051147,74.0482177734375,190.76470947265625)" opacity="1"><g opacity="1" transform="matrix(1,0,0,1,0,0)"><path stroke-linecap="round" stroke-linejoin="miter" fill-opacity="0" stroke-miterlimit="10" stroke="rgb(87,204,171)" stroke-opacity="1" stroke-width="8" d=" M56.58100128173828,9.83899974822998 C56.58100128173828,9.83899974822998 -21.39699935913086,-3.7209999561309814 -47.891998291015625,-8.32800006866455"></path></g></g></g><g style="display: block;"><g transform="matrix(1.1100000143051147,0,0,1.1100000143051147,89.06541442871094,169.67137145996094)" opacity="1"><g opacity="1" transform="matrix(1,0,0,1,0,0)"><path stroke-linecap="round" stroke-linejoin="miter" fill-opacity="0" stroke-miterlimit="10" stroke="rgb(87,204,171)" stroke-opacity="1" stroke-width="8" d=" M39.70600128173828,14.24899959564209 C39.70600128173828,14.24899959564209 2.63100004196167,0.9440000057220459 -20.854000091552734,-7.484000205993652"></path></g></g></g><g style="display: block;"><g transform="matrix(1.1100000143051147,0,0,1.1100000143051147,87.80889129638672,141.42520141601562)" opacity="1"><g opacity="1" transform="matrix(1,0,0,1,0,0)"><path stroke-linecap="round" stroke-linejoin="miter" fill-opacity="0" stroke-miterlimit="10" stroke="rgb(87,204,171)" stroke-opacity="1" stroke-width="8" d=" M38.819000244140625,22.097999572753906 C38.819000244140625,22.097999572753906 9.46500015258789,5.388000011444092 -13.145000457763672,-7.482999801635742"></path></g></g></g><g style="display: block;"><g transform="matrix(1.1100000143051147,0,0,1.1100000143051147,96.56124877929688,115.71981811523438)" opacity="1"><g opacity="1" transform="matrix(1,0,0,1,0,0)"><path stroke-linecap="round" stroke-linejoin="miter" fill-opacity="0" stroke-miterlimit="10" stroke="rgb(87,204,171)" stroke-opacity="1" stroke-width="8" d=" M31.708999633789062,26.1200008392334 C31.708999633789062,26.1200008392334 12.64900016784668,10.420000076293945 -4.572999954223633,-3.7669999599456787"></path></g></g></g><g style="display: block;"><g transform="matrix(1.1100000143051147,0,0,1.1100000143051147,120.94349670410156,103.8050765991211)" opacity="1"><g opacity="1" transform="matrix(1,0,0,1,0,0)"><path stroke-linecap="round" stroke-linejoin="miter" fill-opacity="0" stroke-miterlimit="10" stroke="rgb(87,204,171)" stroke-opacity="1" stroke-width="8" d=" M19.663000106811523,23.72599983215332 C19.663000106811523,23.72599983215332 -9.121999740600586,-11.006999969482422 -17.437999725341797,-21.041000366210938"></path></g></g></g><g style="display: block;"><g transform="matrix(1.1100000143051147,0,0,1.1100000143051147,137.87100219726562,81.05451965332031)" opacity="1"><g opacity="1" transform="matrix(1,0,0,1,0,0)"><path stroke-linecap="round" stroke-linejoin="miter" fill-opacity="0" stroke-miterlimit="10" stroke="rgb(87,204,171)" stroke-opacity="1" stroke-width="8" d=" M22.996999740600586,39.09299850463867 C22.996999740600586,39.09299850463867 -2.441999912261963,-4.1519999504089355 -15.482000350952148,-26.31800079345703"></path></g></g></g><g style="display: block;"><g transform="matrix(1.1100000143051147,0,0,1.1100000143051147,166.976318359375,82.7295150756836)" opacity="1"><g opacity="1" transform="matrix(1,0,0,1,0,0)"><path stroke-linecap="round" stroke-linejoin="miter" fill-opacity="0" stroke-miterlimit="10" stroke="rgb(87,204,171)" stroke-opacity="1" stroke-width="8" d=" M15.376999855041504,41.7130012512207 C15.376999855041504,41.7130012512207 -3.815999984741211,-10.35200023651123 -11.878000259399414,-32.220001220703125"></path></g></g></g><g style="display: block;"><g transform="matrix(1.1100000143051147,0,0,1.1100000143051147,193.00247192382812,90.23088836669922)" opacity="1"><g opacity="1" transform="matrix(1,0,0,1,0,0)"><path stroke-linecap="round" stroke-linejoin="miter" fill-opacity="0" stroke-miterlimit="10" stroke="rgb(87,204,171)" stroke-opacity="1" stroke-width="8" d=" M7.497000217437744,41.9640007019043 C7.497000217437744,41.9640007019043 -7.497000217437744,-41.9640007019043 -7.497000217437744,-41.9640007019043"></path></g></g></g><g style="display: block;" transform="matrix(1.1100000143051147,0,0,1.1100000143051147,523.91455078125,206.24253845214844)" opacity="1"><g opacity="1" transform="matrix(1,0,0,1,0,0)"><path fill="rgb(255,255,255)" fill-opacity="1" d=" M-8.24899959564209,0.4180000126361847 C-8.24899959564209,0.4180000126361847 -21.711000442504883,0.4180000126361847 -21.711000442504883,0.4180000126361847 C-21.711000442504883,0.4180000126361847 -42.625999450683594,-27.95199966430664 -42.625999450683594,-27.95199966430664 C-42.625999450683594,-27.95199966430664 -56.0890007019043,-27.95199966430664 -56.0890007019043,-27.95199966430664 C-56.0890007019043,-27.95199966430664 -56.0890007019043,0.4180000126361847 -56.0890007019043,0.4180000126361847 C-56.0890007019043,0.4180000126361847 -67.88099670410156,0.4180000126361847 -67.88099670410156,0.4180000126361847 C-67.88099670410156,0.4180000126361847 -67.88099670410156,-73.00900268554688 -67.88099670410156,-73.00900268554688 C-67.88099670410156,-73.00900268554688 -41.06800079345703,-73.00900268554688 -41.06800079345703,-73.00900268554688 C-33.6150016784668,-73.00900268554688 -27.607999801635742,-70.8949966430664 -23.045000076293945,-66.77899932861328 C-18.485000610351562,-62.66299819946289 -16.14699935913086,-57.2130012512207 -16.14699935913086,-50.5359992980957 C-16.14699935913086,-40.856998443603516 -21.375999450683594,-33.29199981689453 -30.277000427246094,-29.843000411987305 C-30.277000427246094,-29.843000411987305 -8.24899959564209,0.4180000126361847 -8.24899959564209,0.4180000126361847z M-56.0890007019043,-62.55099868774414 C-56.0890007019043,-62.55099868774414 -56.0890007019043,-38.409000396728516 -56.0890007019043,-38.409000396728516 C-56.0890007019043,-38.409000396728516 -41.29100036621094,-38.409000396728516 -41.29100036621094,-38.409000396728516 C-33.16999816894531,-38.409000396728516 -28.27400016784668,-43.30500030517578 -28.27400016784668,-50.42499923706055 C-28.27400016784668,-57.65700149536133 -33.16999816894531,-62.55099868774414 -41.29100036621094,-62.55099868774414 C-41.29100036621094,-62.55099868774414 -56.0890007019043,-62.55099868774414 -56.0890007019043,-62.55099868774414z"></path></g><g opacity="1" transform="matrix(1,0,0,1,0,0)"><path fill="rgb(255,255,255)" fill-opacity="1" d=" M44.042999267578125,-23.058000564575195 C44.042999267578125,-23.058000564575195 3.322999954223633,-23.058000564575195 3.322999954223633,-23.058000564575195 C4.770999908447266,-14.04699993133545 11.668000221252441,-8.704999923706055 21.124000549316406,-8.704999923706055 C26.79800033569336,-8.704999923706055 32.13800048828125,-10.819000244140625 37.03300094604492,-15.157999992370605 C37.03300094604492,-15.157999992370605 42.595001220703125,-7.14900016784668 42.595001220703125,-7.14900016784668 C36.367000579833984,-1.2519999742507935 29.134000778198242,1.6410000324249268 20.791000366210938,1.6410000324249268 C12.335000038146973,1.6410000324249268 5.328000068664551,-1.0290000438690186 -0.23600000143051147,-6.479000091552734 C-5.797999858856201,-11.932999610900879 -8.579999923706055,-18.718000411987305 -8.579999923706055,-26.839000701904297 C-8.579999923706055,-34.8489990234375 -5.908999919891357,-41.637001037597656 -0.45899999141693115,-47.08700180053711 C4.993000030517578,-52.64899826049805 11.779999732971191,-55.43199920654297 19.67799949645996,-55.43199920654297 C26.90999984741211,-55.43199920654297 32.917999267578125,-53.09400177001953 37.70199966430664,-48.310001373291016 C42.48400115966797,-43.52799987792969 44.93299865722656,-37.63100051879883 44.93299865722656,-30.399999618530273 C44.93299865722656,-28.062000274658203 44.599998474121094,-25.617000579833984 44.042999267578125,-23.058000564575195z M3.546999931335449,-32.180999755859375 C3.546999931335449,-32.180999755859375 33.250999450683594,-32.180999755859375 33.250999450683594,-32.180999755859375 C33.138999938964844,-40.301998138427734 27.131000518798828,-45.53099822998047 19.232999801635742,-45.53099822998047 C11.555999755859375,-45.53099822998047 5.327000141143799,-40.301998138427734 3.546999931335449,-32.180999755859375z"></path></g><g opacity="1" transform="matrix(1,0,0,1,0,0)"><path fill="rgb(255,255,255)" fill-opacity="1" d=" M89.65899658203125,-46.97700119018555 C89.65899658203125,-46.97700119018555 83.31700134277344,-39.74399948120117 83.31700134277344,-39.74399948120117 C79.75800323486328,-43.41699981689453 75.52899932861328,-45.30699920654297 70.52200317382812,-45.30699920654297 C65.51699829101562,-45.30699920654297 63.069000244140625,-43.52799987792969 63.069000244140625,-40.07899856567383 C63.069000244140625,-37.29800033569336 64.95999908447266,-35.7400016784668 70.3010025024414,-33.625 C70.3010025024414,-33.625 75.52899932861328,-31.51099967956543 75.52899932861328,-31.51099967956543 C85.875,-27.172000885009766 90.43699645996094,-22.724000930786133 90.43699645996094,-15.04699993133545 C90.43699645996094,-9.817999839782715 88.5459976196289,-5.702000141143799 84.6520004272461,-2.697999954223633 C80.75800323486328,0.1940000057220459 75.9739990234375,1.6410000324249268 70.18900299072266,1.6410000324249268 C60.95399856567383,1.6410000324249268 53.612998962402344,-1.9199999570846558 48.1609992980957,-8.928000450134277 C48.1609992980957,-8.928000450134277 54.83599853515625,-16.270000457763672 54.83599853515625,-16.270000457763672 C59.84299850463867,-11.041999816894531 64.95999908447266,-8.484000205993652 70.18900299072266,-8.484000205993652 C75.19400024414062,-8.484000205993652 78.97699737548828,-10.597999572753906 78.97699737548828,-14.60200023651123 C78.97699737548828,-17.827999114990234 76.64199829101562,-19.163000106811523 71.302001953125,-21.388999938964844 C71.302001953125,-21.388999938964844 65.73799896240234,-23.722999572753906 65.73799896240234,-23.722999572753906 C56.06100082397461,-27.729000091552734 51.49700164794922,-31.957000732421875 51.49700164794922,-39.63399887084961 C51.49700164794922,-49.42499923706055 59.619998931884766,-55.43199920654297 70.74600219726562,-55.43199920654297 C78.64399719238281,-55.43199920654297 84.875,-52.650001525878906 89.65899658203125,-46.97700119018555z"></path></g><g opacity="1" transform="matrix(1,0,0,1,0,0)"><path fill="rgb(255,255,255)" fill-opacity="1" d=" M131.37899780273438,-9.482999801635742 C131.37899780273438,-9.482999801635742 131.37899780273438,0.4180000126361847 131.37899780273438,0.4180000126361847 C127.70800018310547,1.1959999799728394 124.47899627685547,1.6410000324249268 121.69999694824219,1.6410000324249268 C109.12799835205078,1.6410000324249268 101.56300354003906,-4.590000152587891 101.56300354003906,-17.382999420166016 C101.56300354003906,-17.382999420166016 101.56300354003906,-44.08300018310547 101.56300354003906,-44.08300018310547 C101.56300354003906,-44.08300018310547 92.66200256347656,-44.08300018310547 92.66200256347656,-44.08300018310547 C92.66200256347656,-44.08300018310547 92.66200256347656,-54.20899963378906 92.66200256347656,-54.20899963378906 C92.66200256347656,-54.20899963378906 101.56300354003906,-54.20899963378906 101.56300354003906,-54.20899963378906 C101.56300354003906,-54.20899963378906 101.56300354003906,-68.55999755859375 101.56300354003906,-68.55999755859375 C101.56300354003906,-68.55999755859375 113.3550033569336,-68.55999755859375 113.3550033569336,-68.55999755859375 C113.3550033569336,-68.55999755859375 113.3550033569336,-54.20899963378906 113.3550033569336,-54.20899963378906 C113.3550033569336,-54.20899963378906 129.5989990234375,-54.20899963378906 129.5989990234375,-54.20899963378906 C129.5989990234375,-54.20899963378906 129.5989990234375,-44.08300018310547 129.5989990234375,-44.08300018310547 C129.5989990234375,-44.08300018310547 113.3550033569336,-44.08300018310547 113.3550033569336,-44.08300018310547 C113.3550033569336,-44.08300018310547 113.3550033569336,-18.38599967956543 113.3550033569336,-18.38599967956543 C113.3550033569336,-11.37600040435791 117.02899932861328,-8.928000450134277 124.14700317382812,-8.928000450134277 C125.81500244140625,-8.928000450134277 128.1529998779297,-9.149999618530273 131.37899780273438,-9.482999801635742z"></path></g><g opacity="1" transform="matrix(1,0,0,1,0,0)"><path fill="rgb(255,255,255)" fill-opacity="1" d=" M182.89199829101562,-47.19900131225586 C188.56500244140625,-41.74700164794922 191.45799255371094,-34.959999084472656 191.45799255371094,-26.951000213623047 C191.45799255371094,-18.94099998474121 188.56500244140625,-12.154000282287598 182.89199829101562,-6.5920000076293945 C177.21800231933594,-1.1419999599456787 170.42999267578125,1.6410000324249268 162.4199981689453,1.6410000324249268 C154.2989959716797,1.5290000438690186 147.51400756835938,-1.2519999742507935 141.9499969482422,-6.703999996185303 C136.38800048828125,-12.154000282287598 133.6060028076172,-18.94099998474121 133.6060028076172,-26.951000213623047 C133.6060028076172,-34.959999084472656 136.38800048828125,-41.74700164794922 141.9499969482422,-47.19900131225586 C147.51400756835938,-52.64899826049805 154.2989959716797,-55.43199920654297 162.4199981689453,-55.43199920654297 C170.42999267578125,-55.43199920654297 177.21800231933594,-52.64899826049805 182.89199829101562,-47.19900131225586z M150.29299926757812,-39.52299880981445 C147.0679931640625,-36.185001373291016 145.50900268554688,-31.95599937438965 145.50900268554688,-26.839000701904297 C145.50900268554688,-21.833999633789062 147.0679931640625,-17.606000900268555 150.29299926757812,-14.156999588012695 C153.52099609375,-10.819000244140625 157.52499389648438,-9.149999618530273 162.4199981689453,-9.149999618530273 C167.20399475097656,-9.149999618530273 171.3209991455078,-10.819000244140625 174.5469970703125,-14.156999588012695 C177.7729949951172,-17.606000900268555 179.4429931640625,-21.833999633789062 179.4429931640625,-26.839000701904297 C179.4429931640625,-31.95599937438965 177.7729949951172,-36.185001373291016 174.5469970703125,-39.52299880981445 C171.3209991455078,-42.97200012207031 167.3159942626953,-44.64099884033203 162.53199768066406,-44.750999450683594 C157.63600158691406,-44.64099884033203 153.52099609375,-42.97200012207031 150.29299926757812,-39.52299880981445z"></path></g><g opacity="1" transform="matrix(1,0,0,1,0,0)"><path fill="rgb(255,255,255)" fill-opacity="1" d=" M231.06700134277344,-54.20899963378906 C231.06700134277344,-54.20899963378906 231.06700134277344,-43.862998962402344 231.06700134277344,-43.862998962402344 C231.06700134277344,-43.862998962402344 227.50599670410156,-43.862998962402344 227.50599670410156,-43.862998962402344 C218.27200317382812,-43.862998962402344 211.48500061035156,-38.409000396728516 211.48500061035156,-28.73200035095215 C211.48500061035156,-28.73200035095215 211.48500061035156,0.4180000126361847 211.48500061035156,0.4180000126361847 C211.48500061035156,0.4180000126361847 199.80499267578125,0.4180000126361847 199.80499267578125,0.4180000126361847 C199.80499267578125,0.4180000126361847 199.80499267578125,-54.20899963378906 199.80499267578125,-54.20899963378906 C199.80499267578125,-54.20899963378906 210.70700073242188,-54.20899963378906 210.70700073242188,-54.20899963378906 C210.70700073242188,-54.20899963378906 210.70700073242188,-47.08700180053711 210.70700073242188,-47.08700180053711 C214.6009979248047,-52.20399856567383 219.83099365234375,-54.76300048828125 226.61599731445312,-54.76300048828125 C228.28599548339844,-54.76300048828125 229.73199462890625,-54.54199981689453 231.06700134277344,-54.20899963378906z"></path></g><g opacity="1" transform="matrix(1,0,0,1,0,0)"><path fill="rgb(255,255,255)" fill-opacity="1" d=" M278.7959899902344,-32.625999450683594 C278.7959899902344,-32.625999450683594 278.7959899902344,0.4180000126361847 278.7959899902344,0.4180000126361847 C278.7959899902344,0.4180000126361847 267.8940124511719,0.4180000126361847 267.8940124511719,0.4180000126361847 C267.8940124511719,0.4180000126361847 267.8940124511719,-5.701000213623047 267.8940124511719,-5.701000213623047 C263.77801513671875,-0.8059999942779541 257.99200439453125,1.6410000324249268 250.42799377441406,1.6410000324249268 C238.968994140625,1.6410000324249268 231.4029998779297,-4.701000213623047 231.4029998779297,-14.156999588012695 C231.4029998779297,-23.613000869750977 239.1909942626953,-29.732999801635742 251.53900146484375,-29.732999801635742 C251.53900146484375,-29.732999801635742 267.0039978027344,-29.732999801635742 267.0039978027344,-29.732999801635742 C267.0039978027344,-29.732999801635742 267.0039978027344,-33.29199981689453 267.0039978027344,-33.29199981689453 C267.0039978027344,-40.856998443603516 262.7749938964844,-44.9739990234375 255.32200622558594,-44.9739990234375 C249.8699951171875,-44.9739990234375 244.75399780273438,-42.303001403808594 240.19200134277344,-36.85300064086914 C240.19200134277344,-36.85300064086914 233.40499877929688,-43.75 233.40499877929688,-43.75 C238.85899353027344,-51.53799819946289 246.53399658203125,-55.43199920654297 256.43499755859375,-55.43199920654297 C269.8970031738281,-55.43199920654297 278.7959899902344,-47.31100082397461 278.7959899902344,-32.625999450683594z M267.0039978027344,-20.274999618530273 C267.0039978027344,-20.274999618530273 267.0039978027344,-21.277000427246094 267.0039978027344,-21.277000427246094 C267.0039978027344,-21.277000427246094 252.98599243164062,-21.277000427246094 252.98599243164062,-21.277000427246094 C246.53399658203125,-21.277000427246094 243.30599975585938,-19.051000595092773 243.30599975585938,-14.60200023651123 C243.30599975585938,-10.039999961853027 247.1999969482422,-7.369999885559082 252.87399291992188,-7.369999885559082 C260.77398681640625,-7.369999885559082 267.0039978027344,-12.821999549865723 267.0039978027344,-20.274999618530273z"></path></g><g opacity="1" transform="matrix(1,0,0,1,0,0)"><path fill="rgb(255,255,255)" fill-opacity="1" d=" M322.52301025390625,-9.482999801635742 C322.52301025390625,-9.482999801635742 322.52301025390625,0.4180000126361847 322.52301025390625,0.4180000126361847 C318.85198974609375,1.1959999799728394 315.6260070800781,1.6410000324249268 312.8429870605469,1.6410000324249268 C300.27301025390625,1.6410000324249268 292.7070007324219,-4.590000152587891 292.7070007324219,-17.382999420166016 C292.7070007324219,-17.382999420166016 292.7070007324219,-44.08300018310547 292.7070007324219,-44.08300018310547 C292.7070007324219,-44.08300018310547 283.8070068359375,-44.08300018310547 283.8070068359375,-44.08300018310547 C283.8070068359375,-44.08300018310547 283.8070068359375,-54.20899963378906 283.8070068359375,-54.20899963378906 C283.8070068359375,-54.20899963378906 292.7070007324219,-54.20899963378906 292.7070007324219,-54.20899963378906 C292.7070007324219,-54.20899963378906 292.7070007324219,-68.55999755859375 292.7070007324219,-68.55999755859375 C292.7070007324219,-68.55999755859375 304.5010070800781,-68.55999755859375 304.5010070800781,-68.55999755859375 C304.5010070800781,-68.55999755859375 304.5010070800781,-54.20899963378906 304.5010070800781,-54.20899963378906 C304.5010070800781,-54.20899963378906 320.7430114746094,-54.20899963378906 320.7430114746094,-54.20899963378906 C320.7430114746094,-54.20899963378906 320.7430114746094,-44.08300018310547 320.7430114746094,-44.08300018310547 C320.7430114746094,-44.08300018310547 304.5010070800781,-44.08300018310547 304.5010070800781,-44.08300018310547 C304.5010070800781,-44.08300018310547 304.5010070800781,-18.38599967956543 304.5010070800781,-18.38599967956543 C304.5010070800781,-11.37600040435791 308.1709899902344,-8.928000450134277 315.2929992675781,-8.928000450134277 C316.96099853515625,-8.928000450134277 319.2950134277344,-9.149999618530273 322.52301025390625,-9.482999801635742z"></path></g><g opacity="1" transform="matrix(1,0,0,1,0,0)"><path fill="rgb(255,255,255)" fill-opacity="1" d=" M343.2179870605469,-74.56700134277344 C343.2179870605469,-70.22799682617188 339.6579895019531,-66.88999938964844 335.2070007324219,-66.88999938964844 C330.7560119628906,-66.88999938964844 327.1969909667969,-70.22799682617188 327.1969909667969,-74.56700134277344 C327.1969909667969,-78.90599822998047 330.7560119628906,-82.3550033569336 335.2070007324219,-82.3550033569336 C339.5459899902344,-82.3550033569336 343.2179870605469,-78.90599822998047 343.2179870605469,-74.56700134277344z M340.99200439453125,-54.20899963378906 C340.99200439453125,-54.20899963378906 340.99200439453125,0.4180000126361847 340.99200439453125,0.4180000126361847 C340.99200439453125,0.4180000126361847 329.31201171875,0.4180000126361847 329.31201171875,0.4180000126361847 C329.31201171875,0.4180000126361847 329.31201171875,-54.20899963378906 329.31201171875,-54.20899963378906 C329.31201171875,-54.20899963378906 340.99200439453125,-54.20899963378906 340.99200439453125,-54.20899963378906z"></path></g><g opacity="1" transform="matrix(1,0,0,1,0,0)"><path fill="rgb(255,255,255)" fill-opacity="1" d=" M398.7340087890625,-47.19900131225586 C404.4070129394531,-41.74700164794922 407.29901123046875,-34.959999084472656 407.29901123046875,-26.951000213623047 C407.29901123046875,-18.94099998474121 404.4070129394531,-12.154000282287598 398.7340087890625,-6.5920000076293945 C393.05999755859375,-1.1419999599456787 386.27099609375,1.6410000324249268 378.260986328125,1.6410000324249268 C370.1400146484375,1.5290000438690186 363.3550109863281,-1.2519999742507935 357.7909851074219,-6.703999996185303 C352.22900390625,-12.154000282287598 349.447998046875,-18.94099998474121 349.447998046875,-26.951000213623047 C349.447998046875,-34.959999084472656 352.22900390625,-41.74700164794922 357.7909851074219,-47.19900131225586 C363.3550109863281,-52.64899826049805 370.1400146484375,-55.43199920654297 378.260986328125,-55.43199920654297 C386.27099609375,-55.43199920654297 393.05999755859375,-52.64899826049805 398.7340087890625,-47.19900131225586z M366.135009765625,-39.52299880981445 C362.9110107421875,-36.185001373291016 361.3500061035156,-31.95599937438965 361.3500061035156,-26.839000701904297 C361.3500061035156,-21.833999633789062 362.9110107421875,-17.606000900268555 366.135009765625,-14.156999588012695 C369.3630065917969,-10.819000244140625 373.3659973144531,-9.149999618530273 378.260986328125,-9.149999618530273 C383.0450134277344,-9.149999618530273 387.1619873046875,-10.819000244140625 390.38800048828125,-14.156999588012695 C393.614013671875,-17.606000900268555 395.2850036621094,-21.833999633789062 395.2850036621094,-26.839000701904297 C395.2850036621094,-31.95599937438965 393.614013671875,-36.185001373291016 390.38800048828125,-39.52299880981445 C387.1619873046875,-42.97200012207031 383.1579895019531,-44.64099884033203 378.3739929199219,-44.750999450683594 C373.4779968261719,-44.64099884033203 369.3630065917969,-42.97200012207031 366.135009765625,-39.52299880981445z"></path></g><g opacity="1" transform="matrix(1,0,0,1,0,0)"><path fill="rgb(255,255,255)" fill-opacity="1" d=" M463.3739929199219,-33.73699951171875 C463.3739929199219,-33.73699951171875 463.3739929199219,0.4180000126361847 463.3739929199219,0.4180000126361847 C463.3739929199219,0.4180000126361847 451.6919860839844,0.4180000126361847 451.6919860839844,0.4180000126361847 C451.6919860839844,0.4180000126361847 451.6919860839844,-32.180999755859375 451.6919860839844,-32.180999755859375 C451.6919860839844,-39.744998931884766 446.9079895019531,-44.861000061035156 439.7879943847656,-44.861000061035156 C432.5559997558594,-44.861000061035156 427.32598876953125,-39.63399887084961 427.32598876953125,-32.180999755859375 C427.32598876953125,-32.180999755859375 427.32598876953125,0.4180000126361847 427.32598876953125,0.4180000126361847 C427.32598876953125,0.4180000126361847 415.64599609375,0.4180000126361847 415.64599609375,0.4180000126361847 C415.64599609375,0.4180000126361847 415.64599609375,-54.20899963378906 415.64599609375,-54.20899963378906 C415.64599609375,-54.20899963378906 426.5480041503906,-54.20899963378906 426.5480041503906,-54.20899963378906 C426.5480041503906,-54.20899963378906 426.5480041503906,-48.755001068115234 426.5480041503906,-48.755001068115234 C430.66400146484375,-53.20600128173828 436.11700439453125,-55.43199920654297 442.9020080566406,-55.43199920654297 C455.6969909667969,-55.43199920654297 463.3739929199219,-46.75400161743164 463.3739929199219,-33.73699951171875z"></path></g></g><g style="display: block;" transform="matrix(1.1100000143051147,0,0,1.1100000143051147,523.9146118164062,206.24142456054688)" opacity="1"><g opacity="1" transform="matrix(1,0,0,1,0,0)"><path fill="rgb(255,255,255)" fill-opacity="1" d=" M-12.588000297546387,70.57599639892578 C-12.588000297546387,76.80799865722656 -14.814000129699707,81.92400360107422 -19.150999069213867,85.93000030517578 C-23.489999771118164,89.93399810791016 -29.277000427246094,91.93800354003906 -36.39500045776367,91.93800354003906 C-36.39500045776367,91.93800354003906 -67.88099670410156,91.93800354003906 -67.88099670410156,91.93800354003906 C-67.88099670410156,91.93800354003906 -67.88099670410156,18.510000228881836 -67.88099670410156,18.510000228881836 C-67.88099670410156,18.510000228881836 -42.180999755859375,18.510000228881836 -42.180999755859375,18.510000228881836 C-35.61600112915039,18.510000228881836 -30.277000427246094,20.291000366210938 -26.273000717163086,23.961000442504883 C-22.155000686645508,27.634000778198242 -20.152999877929688,32.30500030517578 -20.152999877929688,38.09000015258789 C-20.152999877929688,43.763999938964844 -22.267000198364258,48.4370002746582 -26.382999420166016,51.88600158691406 C-17.594999313354492,54.66699981689453 -12.588000297546387,61.564998626708984 -12.588000297546387,70.57599639892578z M-56.308998107910156,28.85700035095215 C-56.308998107910156,28.85700035095215 -56.308998107910156,48.659000396728516 -56.308998107910156,48.659000396728516 C-56.308998107910156,48.659000396728516 -43.29399871826172,48.659000396728516 -43.29399871826172,48.659000396728516 C-36.0620002746582,48.659000396728516 -31.94700050354004,44.76599884033203 -31.94700050354004,38.645999908447266 C-31.94700050354004,32.52799987792969 -36.0620002746582,28.85700035095215 -43.29399871826172,28.85700035095215 C-43.29399871826172,28.85700035095215 -56.308998107910156,28.85700035095215 -56.308998107910156,28.85700035095215z M-37.39699935913086,81.59100341796875 C-29.275999069213867,81.59100341796875 -24.492000579833984,77.25299835205078 -24.492000579833984,70.24299621582031 C-24.492000579833984,63.233001708984375 -29.275999069213867,58.78300094604492 -37.39699935913086,58.78300094604492 C-37.39699935913086,58.78300094604492 -56.308998107910156,58.78300094604492 -56.308998107910156,58.78300094604492 C-56.308998107910156,58.78300094604492 -56.308998107910156,81.59100341796875 -56.308998107910156,81.59100341796875 C-56.308998107910156,81.59100341796875 -37.39699935913086,81.59100341796875 -37.39699935913086,81.59100341796875z"></path></g><g opacity="1" transform="matrix(1,0,0,1,0,0)"><path fill="rgb(255,255,255)" fill-opacity="1" d=" M38.47999954223633,58.89400100708008 C38.47999954223633,58.89400100708008 38.47999954223633,91.93800354003906 38.47999954223633,91.93800354003906 C38.47999954223633,91.93800354003906 27.577999114990234,91.93800354003906 27.577999114990234,91.93800354003906 C27.577999114990234,91.93800354003906 27.577999114990234,85.81800079345703 27.577999114990234,85.81800079345703 C23.461999893188477,90.71299743652344 17.676000595092773,93.16100311279297 10.112000465393066,93.16100311279297 C-1.347000002861023,93.16100311279297 -8.913000106811523,86.81900024414062 -8.913000106811523,77.36299896240234 C-8.913000106811523,67.90699768066406 -1.125,61.7869987487793 11.222999572753906,61.7869987487793 C11.222999572753906,61.7869987487793 26.687999725341797,61.7869987487793 26.687999725341797,61.7869987487793 C26.687999725341797,61.7869987487793 26.687999725341797,58.22800064086914 26.687999725341797,58.22800064086914 C26.687999725341797,50.66299819946289 22.458999633789062,46.54600143432617 15.005999565124512,46.54600143432617 C9.553999900817871,46.54600143432617 4.438000202178955,49.21699905395508 -0.12399999797344208,54.66699981689453 C-0.12399999797344208,54.66699981689453 -6.9120001792907715,47.76900100708008 -6.9120001792907715,47.76900100708008 C-1.4579999446868896,39.98099899291992 6.2179999351501465,36.08700180053711 16.118999481201172,36.08700180053711 C29.58099937438965,36.08700180053711 38.47999954223633,44.20899963378906 38.47999954223633,58.89400100708008z M26.687999725341797,71.24500274658203 C26.687999725341797,71.24500274658203 26.687999725341797,70.24299621582031 26.687999725341797,70.24299621582031 C26.687999725341797,70.24299621582031 12.670000076293945,70.24299621582031 12.670000076293945,70.24299621582031 C6.2179999351501465,70.24299621582031 2.990000009536743,72.46900177001953 2.990000009536743,76.91799926757812 C2.990000009536743,81.4800033569336 6.883999824523926,84.1500015258789 12.557999610900879,84.1500015258789 C20.45800018310547,84.1500015258789 26.687999725341797,78.697998046875 26.687999725341797,71.24500274658203z"></path></g><g opacity="1" transform="matrix(1,0,0,1,0,0)"><path fill="rgb(255,255,255)" fill-opacity="1" d=" M80.98200225830078,37.31100082397461 C80.98200225830078,37.31100082397461 80.98200225830078,47.65700149536133 80.98200225830078,47.65700149536133 C80.98200225830078,47.65700149536133 77.4229965209961,47.65700149536133 77.4229965209961,47.65700149536133 C68.18800354003906,47.65700149536133 61.402000427246094,53.111000061035156 61.402000427246094,62.78799819946289 C61.402000427246094,62.78799819946289 61.402000427246094,91.93800354003906 61.402000427246094,91.93800354003906 C61.402000427246094,91.93800354003906 49.720001220703125,91.93800354003906 49.720001220703125,91.93800354003906 C49.720001220703125,91.93800354003906 49.720001220703125,37.31100082397461 49.720001220703125,37.31100082397461 C49.720001220703125,37.31100082397461 60.624000549316406,37.31100082397461 60.624000549316406,37.31100082397461 C60.624000549316406,37.31100082397461 60.624000549316406,44.43299865722656 60.624000549316406,44.43299865722656 C64.51599884033203,39.316001892089844 69.74600219726562,36.75699996948242 76.53299713134766,36.75699996948242 C78.20099639892578,36.75699996948242 79.64700317382812,36.97800064086914 80.98200225830078,37.31100082397461z"></path></g><g opacity="1" transform="matrix(1,0,0,1,0,0)"><path fill="rgb(255,255,255)" fill-opacity="1" d=" M131.16000366210938,44.31999969482422 C136.83399963378906,49.77199935913086 139.7259979248047,56.558998107910156 139.7259979248047,64.56800079345703 C139.7259979248047,72.5780029296875 136.83399963378906,79.36599731445312 131.16000366210938,84.9280014038086 C125.48600006103516,90.37799835205078 118.69999694824219,93.16100311279297 110.69000244140625,93.16100311279297 C102.56700134277344,93.04900360107422 95.78099822998047,90.26799774169922 90.21900177001953,84.81600189208984 C84.65699768066406,79.36599731445312 81.8740005493164,72.5780029296875 81.8740005493164,64.56800079345703 C81.8740005493164,56.558998107910156 84.65699768066406,49.77199935913086 90.21900177001953,44.31999969482422 C95.78099822998047,38.869998931884766 102.56700134277344,36.08700180053711 110.69000244140625,36.08700180053711 C118.69999694824219,36.08700180053711 125.48600006103516,38.869998931884766 131.16000366210938,44.31999969482422z M98.56300354003906,51.99599838256836 C95.33699798583984,55.33399963378906 93.77899932861328,59.5629997253418 93.77899932861328,64.68000030517578 C93.77899932861328,69.68499755859375 95.33699798583984,73.91400146484375 98.56300354003906,77.36299896240234 C101.78900146484375,80.70099639892578 105.79499816894531,82.36900329589844 110.69000244140625,82.36900329589844 C115.47200012207031,82.36900329589844 119.58999633789062,80.70099639892578 122.81500244140625,77.36299896240234 C126.04299926757812,73.91400146484375 127.71099853515625,69.68499755859375 127.71099853515625,64.68000030517578 C127.71099853515625,59.5629997253418 126.04299926757812,55.33399963378906 122.81500244140625,51.99599838256836 C119.58999633789062,48.547000885009766 115.58399963378906,46.87900161743164 110.80000305175781,46.76900100708008 C105.90499877929688,46.87900161743164 101.78900146484375,48.547000885009766 98.56300354003906,51.99599838256836z"></path></g><g opacity="1" transform="matrix(1,0,0,1,0,0)"><path fill="rgb(255,255,255)" fill-opacity="1" d=" M230.0679931640625,57.78300094604492 C230.0679931640625,57.78300094604492 230.0679931640625,91.93800354003906 230.0679931640625,91.93800354003906 C230.0679931640625,91.93800354003906 218.2740020751953,91.93800354003906 218.2740020751953,91.93800354003906 C218.2740020751953,91.93800354003906 218.2740020751953,59.45100021362305 218.2740020751953,59.45100021362305 C218.2740020751953,51.775001525878906 213.93499755859375,46.76900100708008 206.9250030517578,46.76900100708008 C199.8070068359375,46.76900100708008 194.91000366210938,51.88600158691406 194.91000366210938,58.89400100708008 C194.91000366210938,58.89400100708008 194.91000366210938,91.93800354003906 194.91000366210938,91.93800354003906 C194.91000366210938,91.93800354003906 183.22900390625,91.93800354003906 183.22900390625,91.93800354003906 C183.22900390625,91.93800354003906 183.22900390625,59.45100021362305 183.22900390625,59.45100021362305 C183.22900390625,51.88600158691406 178.7790069580078,46.76900100708008 171.77099609375,46.76900100708008 C164.6490020751953,46.76900100708008 159.7550048828125,51.88600158691406 159.7550048828125,59.45100021362305 C159.7550048828125,59.45100021362305 159.7550048828125,91.93800354003906 159.7550048828125,91.93800354003906 C159.7550048828125,91.93800354003906 148.0749969482422,91.93800354003906 148.0749969482422,91.93800354003906 C148.0749969482422,91.93800354003906 148.0749969482422,37.31100082397461 148.0749969482422,37.31100082397461 C148.0749969482422,37.31100082397461 158.9770050048828,37.31100082397461 158.9770050048828,37.31100082397461 C158.9770050048828,37.31100082397461 158.9770050048828,42.540000915527344 158.9770050048828,42.540000915527344 C162.86900329589844,38.20100021362305 168.2100067138672,36.08700180053711 174.77499389648438,36.08700180053711 C182.33900451660156,36.08700180053711 187.89999389648438,38.97999954223633 191.3489990234375,44.65299987792969 C195.8000030517578,38.97999954223633 201.9199981689453,36.08700180053711 209.8179931640625,36.08700180053711 C222.38999938964844,36.08700180053711 230.0679931640625,44.76599884033203 230.0679931640625,57.78300094604492z"></path></g><g opacity="1" transform="matrix(1,0,0,1,0,0)"><path fill="rgb(255,255,255)" fill-opacity="1" d=" M290.48199462890625,68.46199798583984 C290.48199462890625,68.46199798583984 249.76199340820312,68.46199798583984 249.76199340820312,68.46199798583984 C251.2100067138672,77.4729995727539 258.10699462890625,82.81500244140625 267.56298828125,82.81500244140625 C273.23699951171875,82.81500244140625 278.5769958496094,80.70099639892578 283.47198486328125,76.36199951171875 C283.47198486328125,76.36199951171875 289.03399658203125,84.37100219726562 289.03399658203125,84.37100219726562 C282.8059997558594,90.26799774169922 275.572998046875,93.16100311279297 267.2300109863281,93.16100311279297 C258.77398681640625,93.16100311279297 251.76699829101562,90.48999786376953 246.2030029296875,85.04000091552734 C240.64100646972656,79.58599853515625 237.85899353027344,72.8010025024414 237.85899353027344,64.68000030517578 C237.85899353027344,56.66999816894531 240.52999877929688,49.882999420166016 245.97999572753906,44.43299865722656 C251.4320068359375,38.87099838256836 258.218994140625,36.08700180053711 266.11700439453125,36.08700180053711 C273.3489990234375,36.08700180053711 279.35699462890625,38.42499923706055 284.1409912109375,43.20899963378906 C288.9230041503906,47.99100112915039 291.37200927734375,53.88800048828125 291.37200927734375,61.11899948120117 C291.37200927734375,63.457000732421875 291.03900146484375,65.90299987792969 290.48199462890625,68.46199798583984z M249.98599243164062,59.3390007019043 C249.98599243164062,59.3390007019043 279.69000244140625,59.3390007019043 279.69000244140625,59.3390007019043 C279.5780029296875,51.21799850463867 273.57000732421875,45.98899841308594 265.6719970703125,45.98899841308594 C257.9949951171875,45.98899841308594 251.76600646972656,51.21799850463867 249.98599243164062,59.3390007019043z"></path></g><g opacity="1" transform="matrix(1,0,0,1,0,0)"><path fill="rgb(255,255,255)" fill-opacity="1" d=" M332.2040100097656,82.03600311279297 C332.2040100097656,82.03600311279297 332.2040100097656,91.93800354003906 332.2040100097656,91.93800354003906 C328.5329895019531,92.71600341796875 325.3059997558594,93.16100311279297 322.52301025390625,93.16100311279297 C309.9530029296875,93.16100311279297 302.38800048828125,86.92900085449219 302.38800048828125,74.13600158691406 C302.38800048828125,74.13600158691406 302.38800048828125,47.43600082397461 302.38800048828125,47.43600082397461 C302.38800048828125,47.43600082397461 293.48699951171875,47.43600082397461 293.48699951171875,47.43600082397461 C293.48699951171875,47.43600082397461 293.48699951171875,37.31100082397461 293.48699951171875,37.31100082397461 C293.48699951171875,37.31100082397461 302.38800048828125,37.31100082397461 302.38800048828125,37.31100082397461 C302.38800048828125,37.31100082397461 302.38800048828125,22.959999084472656 302.38800048828125,22.959999084472656 C302.38800048828125,22.959999084472656 314.1820068359375,22.959999084472656 314.1820068359375,22.959999084472656 C314.1820068359375,22.959999084472656 314.1820068359375,37.31100082397461 314.1820068359375,37.31100082397461 C314.1820068359375,37.31100082397461 330.4230041503906,37.31100082397461 330.4230041503906,37.31100082397461 C330.4230041503906,37.31100082397461 330.4230041503906,47.43600082397461 330.4230041503906,47.43600082397461 C330.4230041503906,47.43600082397461 314.1820068359375,47.43600082397461 314.1820068359375,47.43600082397461 C314.1820068359375,47.43600082397461 314.1820068359375,73.13400268554688 314.1820068359375,73.13400268554688 C314.1820068359375,80.14399719238281 317.85101318359375,82.59200286865234 324.9729919433594,82.59200286865234 C326.6409912109375,82.59200286865234 328.97601318359375,82.36900329589844 332.2040100097656,82.03600311279297z"></path></g><g opacity="1" transform="matrix(1,0,0,1,0,0)"><path fill="rgb(255,255,255)" fill-opacity="1" d=" M387.05499267578125,68.46199798583984 C387.05499267578125,68.46199798583984 346.3349914550781,68.46199798583984 346.3349914550781,68.46199798583984 C347.7829895019531,77.4729995727539 354.6809997558594,82.81500244140625 364.1369934082031,82.81500244140625 C369.8110046386719,82.81500244140625 375.14898681640625,80.70099639892578 380.0450134277344,76.36199951171875 C380.0450134277344,76.36199951171875 385.6080017089844,84.37100219726562 385.6080017089844,84.37100219726562 C379.37799072265625,90.26799774169922 372.1449890136719,93.16100311279297 363.802001953125,93.16100311279297 C355.34600830078125,93.16100311279297 348.3389892578125,90.48999786376953 342.7749938964844,85.04000091552734 C337.2130126953125,79.58599853515625 334.4330139160156,72.8010025024414 334.4330139160156,64.68000030517578 C334.4330139160156,56.66999816894531 337.10198974609375,49.882999420166016 342.5539855957031,44.43299865722656 C348.0039978027344,38.87099838256836 354.7909851074219,36.08700180053711 362.6889953613281,36.08700180053711 C369.9209899902344,36.08700180053711 375.9289855957031,38.42499923706055 380.7130126953125,43.20899963378906 C385.4949951171875,47.99100112915039 387.94500732421875,53.88800048828125 387.94500732421875,61.11899948120117 C387.94500732421875,63.457000732421875 387.6109924316406,65.90299987792969 387.05499267578125,68.46199798583984z M346.5580139160156,59.3390007019043 C346.5580139160156,59.3390007019043 376.2640075683594,59.3390007019043 376.2640075683594,59.3390007019043 C376.1520080566406,51.21799850463867 370.1440124511719,45.98899841308594 362.2439880371094,45.98899841308594 C354.5679931640625,45.98899841308594 348.3380126953125,51.21799850463867 346.5580139160156,59.3390007019043z"></path></g><g opacity="1" transform="matrix(1,0,0,1,0,0)"><path fill="rgb(255,255,255)" fill-opacity="1" d=" M427.552001953125,37.31100082397461 C427.552001953125,37.31100082397461 427.552001953125,47.65700149536133 427.552001953125,47.65700149536133 C427.552001953125,47.65700149536133 423.9930114746094,47.65700149536133 423.9930114746094,47.65700149536133 C414.75799560546875,47.65700149536133 407.97198486328125,53.111000061035156 407.97198486328125,62.78799819946289 C407.97198486328125,62.78799819946289 407.97198486328125,91.93800354003906 407.97198486328125,91.93800354003906 C407.97198486328125,91.93800354003906 396.2909851074219,91.93800354003906 396.2909851074219,91.93800354003906 C396.2909851074219,91.93800354003906 396.2909851074219,37.31100082397461 396.2909851074219,37.31100082397461 C396.2909851074219,37.31100082397461 407.1940002441406,37.31100082397461 407.1940002441406,37.31100082397461 C407.1940002441406,37.31100082397461 407.1940002441406,44.43299865722656 407.1940002441406,44.43299865722656 C411.08599853515625,39.316001892089844 416.3160095214844,36.75699996948242 423.1029968261719,36.75699996948242 C424.77099609375,36.75699996948242 426.2170104980469,36.97800064086914 427.552001953125,37.31100082397461z"></path></g><g opacity="1" transform="matrix(1,0,0,1,0,0)"><path fill="rgb(255,255,255)" fill-opacity="1" d=" M234.66000366210938,63.46500015258789"></path></g></g></g></g></svg>