<svg width="132" height="32" viewBox="0 0 132 32" fill="none" xmlns="http://www.w3.org/2000/svg">
<path fill-rule="evenodd" clip-rule="evenodd" d="M124.44 18.6237C124.608 18.7911 124.441 18.6819 124.734 18.7705C124.567 18.6028 124.734 18.712 124.44 18.6237ZM52.4553 14.7958C52.4553 14.8449 52.4553 14.894 52.4553 14.9434C52.6515 14.9434 52.8481 14.9434 53.0444 14.9434C53.0444 14.894 53.0444 14.8449 53.0444 14.7958C52.8481 14.7958 52.6515 14.7958 52.4553 14.7958ZM58.0492 14.0598C58.0492 14.1089 58.0492 14.158 58.0492 14.207C58.2458 14.207 58.4421 14.207 58.6384 14.207C58.6384 14.158 58.6384 14.1089 58.6384 14.0598C58.4421 14.0598 58.2458 14.0598 58.0492 14.0598ZM94.1149 13.7657C94.1873 13.8286 94.2989 14.0381 94.5562 13.9127C94.5562 13.8636 94.5562 13.8144 94.5562 13.7657C94.4093 13.7657 94.2621 13.7657 94.1149 13.7657ZM62.9071 13.3235C62.9071 13.3729 62.9071 13.422 62.9071 13.471C63.1037 13.471 63.2997 13.471 63.4963 13.471C63.4963 13.422 63.4963 13.3729 63.4963 13.3235C63.2997 13.3235 63.1037 13.3235 62.9071 13.3235ZM65.1156 13.7657C65.3609 13.7167 65.6063 13.6673 65.8516 13.6182C65.8516 13.5691 65.8516 13.5201 65.8516 13.471C65.6553 13.3729 65.4588 13.2747 65.2628 13.1766C65.2134 13.3729 65.1643 13.5691 65.1156 13.7657ZM127.237 18.6237C127.237 18.8193 127.237 19.0159 127.237 19.2121C126.494 19.0619 126.077 18.6791 125.176 18.6237C125.176 18.6724 125.176 18.7214 125.176 18.7705C125.127 18.7705 125.078 18.7705 125.029 18.7705C125.205 18.9763 125.506 19.0956 125.765 19.2121C125.765 19.2612 125.765 19.3103 125.765 19.3593C125.667 19.3593 125.568 19.3593 125.47 19.3593C125.47 19.3103 125.47 19.2612 125.47 19.2121C125.274 19.2121 125.078 19.2121 124.882 19.2121C124.882 19.1631 124.882 19.114 124.882 19.065C124.734 19.065 124.587 19.065 124.44 19.065C124.44 19.0159 124.44 18.9667 124.44 18.9177C123.998 18.8193 123.557 18.7214 123.115 18.6237C123.115 18.5743 123.115 18.5252 123.115 18.4761C122.709 18.3712 122.293 18.8159 122.232 18.7705C122.182 18.6237 122.134 18.4761 122.085 18.3289C121.692 18.2798 121.299 18.2305 120.907 18.1817C120.907 18.2305 120.907 18.2798 120.907 18.3289C120.956 18.3289 121.005 18.3289 121.054 18.3289C121.332 18.4556 120.76 18.4761 120.76 18.4761C120.76 18.427 120.76 18.3779 120.76 18.3289C120.613 18.3289 120.465 18.3289 120.318 18.3289C120.318 18.1817 120.318 18.0345 120.318 17.8872C119.469 17.8766 118.871 17.633 118.257 17.4459C117.865 17.4459 117.472 17.4459 117.08 17.4459C117.08 17.3969 117.08 17.3475 117.08 17.2984C116.43 17.1028 116.027 17.2416 115.607 17.2984C115.607 17.2003 115.607 17.1022 115.607 17.0037C114.889 16.9829 114.514 16.7004 113.988 16.5624C113.694 16.6115 113.399 16.6605 113.105 16.7096C113.105 16.6605 113.105 16.6115 113.105 16.5624C113.006 16.5624 112.909 16.5624 112.81 16.5624C112.761 16.4643 112.712 16.3658 112.663 16.2679C112.418 16.2189 112.173 16.1702 111.927 16.1208C111.927 16.0717 111.927 16.0226 111.927 15.9736C111.338 15.9245 110.75 15.8754 110.161 15.8263C110.161 15.777 110.161 15.7282 110.161 15.6791C110.013 15.7282 109.866 15.777 109.719 15.8263C109.719 15.777 109.719 15.7282 109.719 15.6791C109.621 15.6791 109.523 15.6791 109.425 15.6791C109.425 15.6301 109.425 15.5813 109.425 15.5322C109.13 15.4829 108.836 15.4338 108.541 15.3847C108.492 15.4829 108.443 15.5813 108.394 15.6791C108.345 15.6791 108.296 15.6791 108.247 15.6791C108.247 15.6301 108.247 15.5813 108.247 15.5322C108.149 15.5813 108.051 15.6301 107.953 15.6791C107.953 15.6301 107.953 15.5813 107.953 15.5322C107.785 15.3645 107.894 15.5316 107.805 15.2375C106.775 15.2375 105.744 15.2375 104.714 15.2375C104.714 15.1882 104.714 15.1394 104.714 15.0903C104.518 15.0903 104.321 15.0903 104.125 15.0903C104.125 15.0412 104.125 14.9922 104.125 14.9434C103.929 14.9434 103.733 14.9434 103.536 14.9434C103.536 14.894 103.536 14.8449 103.536 14.7958C103.095 14.8449 102.653 14.894 102.211 14.9434C102.211 14.894 102.211 14.8449 102.211 14.7958C102.064 14.7468 101.917 14.6977 101.77 14.6487C101.77 14.6977 101.77 14.7468 101.77 14.7958C101.938 14.9637 101.828 14.7966 101.917 15.0903C101.45 15.0517 101.354 14.9415 101.033 14.7958C101.082 14.894 101.132 14.9922 101.181 15.0903C100.887 15.0903 100.592 15.0903 100.298 15.0903C99.7352 14.5821 98.3021 14.6487 97.2063 14.6487C95.7833 14.5996 94.3602 14.5502 92.9372 14.5015C92.9372 14.4524 92.9372 14.4034 92.9372 14.3546C92.8391 14.3546 92.7406 14.3546 92.6428 14.3546C92.6428 14.3055 92.6428 14.2561 92.6428 14.207C92.3484 14.207 92.0536 14.207 91.7595 14.207C91.7595 14.158 91.7595 14.1089 91.7595 14.0598C91.5918 13.892 91.701 14.0592 91.6123 13.7657C90.8211 13.6182 90.4107 13.7372 89.5514 13.7657C89.5514 13.7167 89.5514 13.6673 89.5514 13.6182C89.6005 13.6182 89.6495 13.6182 89.6983 13.6182C89.9768 13.4918 89.4042 13.471 89.4042 13.471C89.2561 13.3385 87.5125 13.1867 87.1957 13.1766C87.1957 13.2256 87.1957 13.2747 87.1957 13.3235C87.2942 13.3235 87.3923 13.3235 87.4905 13.3235C87.4905 13.3729 87.4905 13.422 87.4905 13.471C87.6377 13.471 87.7849 13.471 87.9321 13.471C87.9321 13.5201 87.9321 13.5691 87.9321 13.6182C87.8827 13.6182 87.8336 13.6182 87.7849 13.6182C87.7849 13.6673 87.7849 13.7167 87.7849 13.7657C87.5886 13.7657 87.3923 13.7657 87.1957 13.7657C87.2132 13.973 87.1648 13.8056 87.3433 13.9127C87.1804 14.0528 87.3451 13.9884 87.0488 14.0598C86.8403 13.6903 86.7467 13.6381 86.1656 13.6182C86.2352 13.9488 86.3557 13.8973 86.0181 14.207C85.8715 14.0638 85.0186 13.6992 84.6935 13.7657C84.6935 13.8144 84.6935 13.8636 84.6935 13.9127C84.4481 13.9127 84.2025 13.9127 83.9574 13.9127C83.744 13.8807 83.4732 13.6703 83.0742 13.7657C83.0742 13.7657 83.0079 13.973 82.6323 13.9127C82.6323 13.8636 82.6323 13.8144 82.6323 13.7657C82.4854 13.8144 82.3378 13.8636 82.1909 13.9127C82.1909 13.8636 82.1909 13.8144 82.1909 13.7657C82.0434 13.7657 81.8965 13.7657 81.749 13.7657C81.749 13.7167 81.749 13.6673 81.749 13.6182C81.4546 13.6182 81.1605 13.6182 80.866 13.6182C80.866 13.6673 80.866 13.7167 80.866 13.7657C80.6182 13.8056 80.6115 13.6274 80.5716 13.6182C80.0319 13.6182 79.4921 13.6182 78.9523 13.6182C78.4782 13.4835 77.9841 13.3382 77.333 13.3235C77.333 13.422 77.333 13.5201 77.333 13.6182C76.8914 13.6182 76.4495 13.6182 76.0081 13.6182C75.803 13.5816 76.0683 13.4884 75.8609 13.471C75.6659 13.5771 74.8869 13.8531 74.536 13.7657C74.536 13.7167 74.536 13.6673 74.536 13.6182C73.1621 13.5201 71.7878 13.422 70.4148 13.3235C70.4148 13.3729 70.4148 13.422 70.4148 13.471C70.7101 13.5553 70.5418 13.4532 70.7086 13.6182C70.4148 13.6182 70.1204 13.6182 69.826 13.6182C69.3408 14.042 69.1534 13.4953 68.6486 13.6182C68.6486 13.6673 68.6486 13.7167 68.6486 13.7657C68.2557 13.8144 67.8632 13.8636 67.4709 13.9127C67.4709 14.0108 67.4709 14.1089 67.4709 14.207C67.2256 14.207 66.9799 14.207 66.7346 14.207C66.6858 14.1089 66.6367 14.0108 66.5877 13.9127C66.0479 13.9614 65.5078 14.0108 64.9684 14.0598C64.9684 14.1089 64.9684 14.158 64.9684 14.207C64.6715 14.2591 64.4148 13.9298 63.9376 14.0598C63.9376 14.1089 63.9376 14.158 63.9376 14.207C63.5944 14.207 63.2506 14.207 62.9071 14.207C62.9071 14.2561 62.9071 14.3055 62.9071 14.3546C62.5639 14.3546 62.2205 14.3546 61.877 14.3546C61.877 14.4034 61.877 14.4524 61.877 14.5015C61.2881 14.4524 60.6993 14.4034 60.1105 14.3546C60.1105 14.4034 60.1105 14.4524 60.1105 14.5015C59.9629 14.5015 59.8157 14.5015 59.6685 14.5015C59.6685 14.5502 59.6685 14.5996 59.6685 14.6487C59.5216 14.6487 59.3741 14.6487 59.2272 14.6487C59.2272 14.6977 59.2272 14.7468 59.2272 14.7958C58.6874 14.8449 58.1474 14.894 57.6079 14.9434C57.5585 15.0412 57.5094 15.1394 57.4604 15.2375C57.3135 15.1882 57.1663 15.1394 57.0191 15.0903C57.0191 15.1394 57.0191 15.1882 57.0191 15.2375C56.6262 15.2865 56.2336 15.3356 55.8414 15.3847C55.8414 15.2865 55.8414 15.1882 55.8414 15.0903C54.9091 15.2375 53.9767 15.3847 53.0444 15.5322C53.0444 15.4829 53.0444 15.4338 53.0444 15.3847C52.7113 15.2694 52.5154 15.4396 52.3084 15.2375C52.3084 15.1394 52.3084 15.0412 52.3084 14.9434C52.1431 14.8168 52.2059 15.0787 52.1612 15.0903C52.1253 15.0995 51.7306 14.8636 51.4248 14.9434C51.4248 14.9922 51.4248 15.0412 51.4248 15.0903C51.0816 15.0903 50.7378 15.0903 50.3946 15.0903C50.3946 15.0903 50.3879 15.1854 50.1002 15.2375C50.1002 15.3356 50.1002 15.4338 50.1002 15.5322C49.8313 15.4319 49.984 15.3234 49.8058 15.5322C49.7567 15.5322 49.7074 15.5322 49.6586 15.5322C49.6586 15.4338 49.6586 15.3356 49.6586 15.2375C49.6095 15.2375 49.5602 15.2375 49.5114 15.2375C49.5114 15.2865 49.5114 15.3356 49.5114 15.3847C49.1679 15.3847 48.8244 15.3847 48.4806 15.3847C48.4806 15.4338 48.4806 15.4829 48.4806 15.5322C48.0393 15.5322 47.5977 15.5322 47.156 15.5322C47.156 15.5813 47.156 15.6301 47.156 15.6791C46.9598 15.6791 46.7635 15.6791 46.5672 15.6791C46.5672 15.7282 46.5672 15.777 46.5672 15.8263C46.3215 15.8263 46.0765 15.8263 45.8312 15.8263C45.8312 15.8754 45.8312 15.9245 45.8312 15.9736C45.5367 15.9245 45.242 15.8754 44.9479 15.8263C44.9479 15.8754 44.9479 15.9245 44.9479 15.9736C44.8498 15.9736 44.7516 15.9736 44.6532 15.9736C44.6532 16.0226 44.6532 16.0717 44.6532 16.1208C44.2048 16.2999 44.1502 16.1564 43.7702 16.1208C43.7702 16.2189 43.7702 16.317 43.7702 16.4149C43.562 16.4072 43.8279 16.3035 43.623 16.2679C43.4964 15.9899 43.4758 16.5624 43.4758 16.5624C43.1112 16.4971 42.9354 16.4271 42.4453 16.4149C42.3193 16.5808 42.3727 16.628 42.1509 16.7096C42.0831 16.6709 42.1181 16.4532 41.8565 16.5624C41.8074 16.6605 41.7581 16.759 41.7093 16.8568C41.2677 16.9058 40.8257 16.9549 40.3841 17.0037C40.3841 17.0531 40.3841 17.1022 40.3841 17.1512C40.2372 17.1512 40.09 17.1512 39.9428 17.1512C39.9428 17.2003 39.9428 17.2493 39.9428 17.2984C39.8446 17.2984 39.7465 17.2984 39.6484 17.2984C39.6484 17.3475 39.6484 17.3969 39.6484 17.4459C39.2067 17.5438 38.7651 17.6416 38.3235 17.74C38.3235 17.7891 38.3235 17.8382 38.3235 17.8872C37.9668 18.0014 37.7635 17.7272 37.5874 17.74C37.5874 17.7891 37.5874 17.8382 37.5874 17.8872C37.4399 17.8872 37.2927 17.8872 37.1458 17.8872C37.1458 17.9363 37.1458 17.9857 37.1458 18.0348C36.4588 18.0836 35.7715 18.1326 35.0849 18.1817C35.0849 18.2798 35.0849 18.3779 35.0849 18.4761C34.7414 18.5252 34.3976 18.5743 34.0543 18.6237C34.0543 18.6724 34.0543 18.7214 34.0543 18.7705C33.6128 18.7705 33.1712 18.7705 32.7294 18.7705C32.7294 18.8193 32.7294 18.8684 32.7294 18.9177C32.435 18.9177 32.1406 18.9177 31.8461 18.9177C31.7972 19.0159 31.7481 19.114 31.699 19.2121C31.6009 19.2121 31.5026 19.2121 31.4045 19.2121C31.4045 19.2612 31.4045 19.3103 31.4045 19.3593C31.2573 19.3593 31.1102 19.3593 30.963 19.3593C30.963 19.4084 30.963 19.4574 30.963 19.5066C30.3251 19.6538 29.687 19.801 29.0493 19.9481C29.0493 20.0954 29.0493 20.2426 29.0493 20.3898C28.951 20.3407 28.853 20.2917 28.7548 20.2426C28.7548 20.3407 28.7548 20.4392 28.7548 20.5371C28.6567 20.488 28.5584 20.4388 28.4603 20.3898C28.4603 20.4388 28.4603 20.488 28.4603 20.5371C28.215 20.5371 27.9696 20.5371 27.7243 20.5371C27.7243 20.5861 27.7243 20.6352 27.7243 20.6842C27.5455 20.7131 27.4635 20.4015 27.1355 20.5371C27.0863 20.6352 27.0375 20.7337 26.9881 20.8314C26.8903 20.8314 26.792 20.8314 26.6939 20.8314C26.6939 20.7337 26.6939 20.6352 26.6939 20.5371C25.8597 20.7333 25.0253 20.9295 24.1913 21.1259C24.1913 21.1749 24.1913 21.224 24.1913 21.2731C23.995 21.2731 23.7988 21.2731 23.6025 21.2731C23.5534 21.3712 23.5043 21.4694 23.4552 21.5675C23.357 21.5675 23.2589 21.5675 23.1609 21.5675C23.1609 21.6166 23.1609 21.666 23.1609 21.7147C22.9155 21.7147 22.6699 21.7147 22.4248 21.7147C22.4248 21.7638 22.4248 21.8128 22.4248 21.8619C22.2285 21.8619 22.0322 21.8619 21.836 21.8619C21.836 21.8619 21.662 22.0922 21.5415 22.1563C21.5415 22.0092 21.5415 21.8619 21.5415 21.7147C21.4926 21.7147 21.4433 21.7147 21.3943 21.7147C21.1473 22.171 20.9481 22.3039 20.2166 22.3035C20.2166 22.4508 20.2166 22.598 20.2166 22.7452C19.9223 22.7942 19.6278 22.8433 19.3334 22.8923C19.2843 22.9906 19.2352 23.0887 19.1862 23.1868C18.941 23.2359 18.6954 23.2849 18.45 23.334C18.45 23.383 18.45 23.4322 18.45 23.4813C18.3029 23.4813 18.1557 23.4813 18.0084 23.4813C18.0084 23.5303 18.0084 23.5794 18.0084 23.6284C17.8613 23.6284 17.7141 23.6284 17.5669 23.6284C17.5179 23.7266 17.4688 23.8247 17.4196 23.9229C17.3706 23.9229 17.3215 23.9229 17.2724 23.9229C17.2724 23.8737 17.2724 23.8247 17.2724 23.7756C17.0272 23.8737 16.7817 23.972 16.5363 24.0701C16.5363 24.1191 16.5363 24.1682 16.5363 24.2173C16.7817 24.2663 17.0272 24.3154 17.2724 24.3644C17.2724 24.4627 17.2724 24.5608 17.2724 24.6589C16.2414 24.4488 15.0481 24.1041 14.3282 24.9534C14.4958 25.1211 14.3869 24.9536 14.4755 25.2477C14.1777 25.264 13.1705 25.3867 13.0034 25.5422C13.1997 25.5422 13.3961 25.5422 13.5922 25.5422C13.5922 25.6403 13.5922 25.7384 13.5922 25.8365C12.1838 25.8394 11.4869 26.4754 10.3537 26.7198C10.1341 27.524 10.1255 27.0306 9.6176 27.3086C9.5686 27.4068 9.51946 27.505 9.47036 27.6031C9.32312 27.6031 9.17588 27.6031 9.02877 27.6031C8.88156 27.7993 8.73432 27.9957 8.58696 28.1919C8.24362 28.241 7.90016 28.29 7.55667 28.3391C7.09953 28.5161 5.39958 29.3767 4.61238 29.0752C4.61238 29.0261 4.61238 28.9771 4.61238 28.9279C3.43823 28.3566 3.85837 28.045 3.43488 26.867C3.79895 26.6444 3.99673 26.0555 4.31804 25.8365C4.51427 25.7875 4.71062 25.7384 4.90685 25.6894C4.90685 25.6403 4.90685 25.5912 4.90685 25.5422C5.20132 25.444 5.49578 25.3458 5.79013 25.2477C5.79013 25.1987 5.79013 25.1496 5.79013 25.1005C5.93736 25.1005 6.08459 25.1005 6.23171 25.1005C6.23171 25.0515 6.23171 25.0024 6.23171 24.9534C6.42794 24.9043 6.62417 24.8551 6.82063 24.8061C6.82063 24.757 6.82063 24.708 6.82063 24.6589C7.06598 24.6098 7.31123 24.5608 7.55667 24.5117C7.55667 24.4627 7.55667 24.4136 7.55667 24.3644C7.99815 24.2173 8.43996 24.0701 8.88156 23.9229C8.88156 23.8737 8.88156 23.8247 8.88156 23.7756C9.07765 23.7266 9.27402 23.6775 9.47036 23.6284C9.47036 23.5794 9.47036 23.5303 9.47036 23.4813C9.6176 23.4813 9.76472 23.4813 9.91193 23.4813C9.91193 23.4322 9.91193 23.383 9.91193 23.334C10.0101 23.334 10.1083 23.334 10.2064 23.334C10.2064 23.2849 10.2064 23.2359 10.2064 23.1868C10.3537 23.1868 10.5008 23.1868 10.6481 23.1868C10.6481 23.1377 10.6481 23.0887 10.6481 23.0396C10.7461 23.0396 10.8443 23.0396 10.9425 23.0396C10.9425 22.9906 10.9425 22.9415 10.9425 22.8923C11.0896 22.8923 11.2369 22.8923 11.3841 22.8923C11.3841 22.8433 11.3841 22.7942 11.3841 22.7452C11.4822 22.7452 11.5804 22.7452 11.6784 22.7452C11.6784 22.6961 11.6784 22.647 11.6784 22.598C11.8256 22.598 11.973 22.598 12.1202 22.598C12.1202 22.5489 12.1202 22.4999 12.1202 22.4508C12.3654 22.4016 12.6109 22.3526 12.8561 22.3035C12.8561 22.2545 12.8561 22.2054 12.8561 22.1563C12.9543 22.1563 13.0525 22.1563 13.1506 22.1563C13.1506 22.1073 13.1506 22.0582 13.1506 22.0092C13.2977 22.0092 13.445 22.0092 13.5922 22.0092C13.5922 21.9601 13.5922 21.9109 13.5922 21.8619C13.6904 21.8619 13.7885 21.8619 13.8866 21.8619C13.8866 21.8128 13.8866 21.7638 13.8866 21.7147C14.0339 21.7147 14.181 21.7147 14.3282 21.7147C14.3282 21.666 14.3282 21.6166 14.3282 21.5675C14.4264 21.5675 14.5246 21.5675 14.6228 21.5675C14.6228 21.5185 14.6228 21.4694 14.6228 21.4202C14.917 21.3712 15.2116 21.3221 15.506 21.2731C15.506 21.224 15.506 21.1749 15.506 21.1259C15.6041 21.1259 15.7023 21.1259 15.8002 21.1259C15.8002 21.0768 15.8002 21.0274 15.8002 20.9787C15.9475 20.9787 16.0948 20.9787 16.242 20.9787C16.242 20.9295 16.242 20.8805 16.242 20.8314C16.3892 20.8314 16.5363 20.8314 16.6836 20.8314C16.6836 20.7824 16.6836 20.7333 16.6836 20.6842C16.8308 20.6842 16.9781 20.6842 17.1252 20.6842C17.1252 20.6352 17.1252 20.5861 17.1252 20.5371C17.2724 20.5371 17.4196 20.5371 17.5669 20.5371C17.5669 20.488 17.5669 20.4388 17.5669 20.3898C17.6651 20.3898 17.7631 20.3898 17.8613 20.3898C17.8613 20.3407 17.8613 20.2917 17.8613 20.2426C18.3029 20.1445 18.7446 20.0464 19.1862 19.9481C19.1862 19.8991 19.1862 19.85 19.1862 19.801C19.4807 19.7519 19.775 19.7028 20.0695 19.6538C20.0695 19.6047 20.0695 19.5557 20.0695 19.5066C20.1676 19.5066 20.2658 19.5066 20.3638 19.5066C20.3638 19.4574 20.3638 19.4084 20.3638 19.3593C20.6583 19.3103 20.9526 19.2612 21.2471 19.2121C21.2471 19.1631 21.2471 19.114 21.2471 19.065C21.3451 19.065 21.4433 19.065 21.5415 19.065C21.5415 19.0159 21.5415 18.9667 21.5415 18.9177C21.6887 18.9177 21.836 18.9177 21.9832 18.9177C21.9832 18.8684 21.9832 18.8193 21.9832 18.7705C22.1303 18.7705 22.2775 18.7705 22.4248 18.7705C22.4248 18.7214 22.4248 18.6724 22.4248 18.6237C22.6699 18.6237 22.9155 18.6237 23.1609 18.6237C23.1609 18.5743 23.1609 18.5252 23.1609 18.4761C23.2589 18.4761 23.357 18.4761 23.4552 18.4761C23.4552 18.427 23.4552 18.3779 23.4552 18.3289C23.6025 18.3289 23.7497 18.3289 23.8968 18.3289C23.8968 18.2798 23.8968 18.2305 23.8968 18.1817C24.0441 18.1817 24.1913 18.1817 24.3385 18.1817C24.3385 18.1326 24.3385 18.0836 24.3385 18.0348C24.4857 18.0348 24.6329 18.0348 24.7801 18.0348C24.7801 17.9857 24.7801 17.9363 24.7801 17.8872C24.9273 17.9363 25.0747 17.9857 25.2217 18.0348C25.2708 17.9363 25.3199 17.8382 25.3689 17.74C25.6144 17.74 25.8596 17.74 26.105 17.74C26.105 17.691 26.105 17.6416 26.105 17.5929C26.2521 17.5929 26.3996 17.5929 26.5467 17.5929C26.5467 17.5438 26.5467 17.4947 26.5467 17.4459C26.6939 17.4459 26.8409 17.4459 26.9881 17.4459C26.9881 17.3969 26.9881 17.3475 26.9881 17.2984C27.1355 17.2984 27.2827 17.2984 27.4299 17.2984C27.4299 17.2493 27.4299 17.2003 27.4299 17.1512C27.6263 17.1512 27.8225 17.1512 28.0188 17.1512C28.0188 17.1022 28.0188 17.0531 28.0188 17.0037C28.1169 17.0037 28.215 17.0037 28.3131 17.0037C28.3131 16.9549 28.3131 16.9058 28.3131 16.8568C30.0303 16.3661 31.7482 15.8754 33.4654 15.3847C33.76 15.3847 34.0543 15.3847 34.3488 15.3847C34.3488 15.3356 34.3488 15.2865 34.3488 15.2375C34.5448 15.2375 34.7414 15.2375 34.9377 15.2375C34.9377 15.1882 34.9377 15.1394 34.9377 15.0903C35.0358 15.0903 35.1336 15.0903 35.2321 15.0903C35.2321 15.0412 35.2321 14.9922 35.2321 14.9434C35.4281 14.9434 35.6243 14.9434 35.8209 14.9434C35.8209 14.894 35.8209 14.8449 35.8209 14.7958C36.0663 14.7958 36.3116 14.7958 36.557 14.7958C36.557 14.7468 36.557 14.6977 36.557 14.6487C36.6551 14.6487 36.7532 14.6487 36.8511 14.6487C36.8511 14.5996 36.8511 14.5502 36.8511 14.5015C37.7343 14.3546 38.6179 14.207 39.5012 14.0598C39.5012 14.0108 39.5012 13.9614 39.5012 13.9127C39.6974 13.9127 39.8937 13.9127 40.09 13.9127C40.09 13.8636 40.09 13.8144 40.09 13.7657C40.6294 13.7167 41.1695 13.6673 41.7093 13.6182C41.7093 13.5691 41.7093 13.5201 41.7093 13.471C42.0037 13.471 42.2981 13.471 42.5925 13.471C42.5925 13.422 42.5925 13.3729 42.5925 13.3235C42.887 13.3235 43.1814 13.3235 43.4758 13.3235C43.5249 13.2256 43.5736 13.1275 43.623 13.0294C44.1137 12.9803 44.6044 12.9313 45.0951 12.8822C45.0951 12.833 45.0951 12.784 45.0951 12.7347C45.3405 12.7347 45.5855 12.7347 45.8312 12.7347C45.8312 12.6856 45.8312 12.6368 45.8312 12.5877C46.0765 12.5877 46.3215 12.5877 46.5672 12.5877C46.5672 12.5387 46.5672 12.4899 46.5672 12.4406C47.4505 12.3915 48.3337 12.3423 49.2167 12.2933C49.2167 12.2442 49.2167 12.1952 49.2167 12.1461C49.4623 12.1461 49.7077 12.1461 49.953 12.1461C50.0021 12.048 50.0512 11.9499 50.1002 11.852C50.3456 11.852 50.5909 11.852 50.8363 11.852C50.8363 11.8026 50.8363 11.7536 50.8363 11.7045C51.1307 11.7045 51.4248 11.7045 51.7192 11.7045C51.7192 11.6554 51.7192 11.6063 51.7192 11.5572C52.0136 11.5572 52.3084 11.5572 52.6025 11.5572C52.6025 11.508 52.6025 11.4589 52.6025 11.4101C52.9953 11.4101 53.3879 11.4101 53.7801 11.4101C55.1495 11.0135 56.9835 11.078 58.3439 10.6742C59.4235 10.6251 60.503 10.576 61.5825 10.5269C61.5825 10.4778 61.5825 10.4287 61.5825 10.3795C62.122 10.3795 62.6621 10.3795 63.2019 10.3795C63.2019 10.3304 63.2019 10.2813 63.2019 10.2324C64.2811 10.1833 65.3609 10.1342 66.4401 10.0854C66.4401 10.1342 66.4401 10.1833 66.4401 10.2324C67.3259 10.4936 68.5225 10.107 69.0902 9.93809C69.9732 9.93809 70.8558 9.93809 71.7391 9.93809C71.9844 9.93809 72.2295 9.93809 72.4751 9.93809C72.5125 9.92969 72.523 9.74939 72.7695 9.79073C72.7695 9.83983 72.7695 9.88896 72.7695 9.93809C73.6037 9.93809 74.4382 9.93809 75.2718 9.93809C75.308 9.94585 75.3178 10.1423 75.5662 10.0854C75.5662 10.0363 75.5662 9.98719 75.5662 9.93809C75.6646 9.93809 75.7628 9.93809 75.8609 9.93809C75.8609 9.88896 75.8609 9.83983 75.8609 9.79073C76.3391 9.62481 77.2217 9.86142 77.4802 9.93809C78.7561 9.93809 80.0319 9.93809 81.3077 9.93809C81.3077 9.98719 81.3077 10.0363 81.3077 10.0854C81.7984 10.0854 82.2891 10.0854 82.7798 10.0854C83.9081 10.1342 85.037 10.1833 86.1656 10.2324C86.1656 10.2813 86.1656 10.3304 86.1656 10.3795C86.656 10.3795 87.147 10.3795 87.6377 10.3795C87.7849 10.3795 87.9321 10.3795 88.0793 10.3795C88.0793 10.4287 88.0793 10.4778 88.0793 10.5269C88.6191 10.5269 89.1588 10.5269 89.6983 10.5269C89.6983 10.576 89.6983 10.6251 89.6983 10.6742C91.0235 10.7721 92.3484 10.8701 93.673 10.9683C94.6274 11.2471 95.974 11.2726 96.9119 11.5572C97.2553 11.5572 97.5988 11.5572 97.9423 11.5572C97.9423 11.6063 97.9423 11.6554 97.9423 11.7045C98.1386 11.7045 98.3349 11.7045 98.5309 11.7045C98.5309 11.7536 98.5309 11.8026 98.5309 11.852C98.6784 11.852 98.8256 11.852 98.9728 11.852C98.9728 11.9011 98.9728 11.9499 98.9728 11.9989C99.2178 11.9989 99.4632 11.9989 99.7088 11.9989C99.7088 12.048 99.7088 12.0967 99.7088 12.1461C99.9542 12.1461 100.2 12.1461 100.445 12.1461C100.445 12.0967 100.445 12.048 100.445 11.9989C100.752 11.929 101.425 12.233 101.622 12.2933C102.555 12.3423 103.487 12.3915 104.419 12.4406C104.419 12.4899 104.419 12.5387 104.419 12.5877C104.616 12.5877 104.812 12.5877 105.008 12.5877C105.008 12.6368 105.008 12.6856 105.008 12.7347C105.156 12.7347 105.303 12.7347 105.45 12.7347C105.45 12.784 105.45 12.833 105.45 12.8822C105.695 12.8822 105.94 12.8822 106.186 12.8822C106.186 12.9313 106.186 12.9803 106.186 13.0294C106.431 13.0294 106.677 13.0294 106.922 13.0294C106.922 13.0787 106.922 13.1278 106.922 13.1766C107.069 13.1766 107.216 13.1766 107.364 13.1766C107.364 13.2256 107.364 13.2747 107.364 13.3235C107.805 13.3729 108.247 13.422 108.688 13.471C108.688 13.5201 108.688 13.5691 108.688 13.6182C108.885 13.6182 109.081 13.6182 109.277 13.6182C109.277 13.6673 109.277 13.7167 109.277 13.7657C109.719 13.8144 110.161 13.8636 110.602 13.9127C110.602 13.9614 110.602 14.0108 110.602 14.0598C110.798 14.0598 110.995 14.0598 111.191 14.0598C111.191 14.1089 111.191 14.158 111.191 14.207C111.387 14.207 111.584 14.207 111.78 14.207C111.78 14.2561 111.78 14.3055 111.78 14.3546C111.976 14.3546 112.173 14.3546 112.369 14.3546C112.369 14.4034 112.369 14.4524 112.369 14.5015C112.614 14.5015 112.86 14.5015 113.105 14.5015C113.799 14.7272 114.768 15.0081 115.46 15.2375C115.706 15.2375 115.951 15.2375 116.196 15.2375C116.196 15.2865 116.196 15.3356 116.196 15.3847C116.54 15.4338 116.883 15.4829 117.227 15.5322C117.227 15.5813 117.227 15.6301 117.227 15.6791C117.325 15.6791 117.423 15.6791 117.521 15.6791C117.521 15.7282 117.521 15.777 117.521 15.8263C117.668 15.8263 117.816 15.8263 117.963 15.8263C117.963 15.8754 117.963 15.9245 117.963 15.9736C118.404 16.0226 118.846 16.0717 119.288 16.1208C119.288 16.1702 119.288 16.2189 119.288 16.2679C119.484 16.2679 119.68 16.2679 119.877 16.2679C119.877 16.317 119.877 16.3658 119.877 16.4149C120.22 16.4643 120.563 16.5133 120.907 16.5624C120.907 16.6115 120.907 16.6605 120.907 16.7096C121.054 16.7096 121.201 16.7096 121.349 16.7096C121.349 16.759 121.349 16.8081 121.349 16.8568C121.545 16.8568 121.741 16.8568 121.937 16.8568C121.937 16.9058 121.937 16.9549 121.937 17.0037C122.232 17.0531 122.526 17.1022 122.82 17.1512C122.82 17.2003 122.82 17.2493 122.82 17.2984C122.968 17.2984 123.115 17.2984 123.262 17.2984C123.262 17.3475 123.262 17.3969 123.262 17.4459C123.409 17.4459 123.557 17.4459 123.704 17.4459C123.704 17.4947 123.704 17.5438 123.704 17.5929C123.851 17.5929 123.998 17.5929 124.146 17.5929C124.146 17.6416 124.146 17.691 124.146 17.74C124.293 17.74 124.44 17.74 124.587 17.74C124.587 17.7891 124.587 17.8382 124.587 17.8872C124.783 17.8872 124.98 17.8872 125.176 17.8872C125.176 17.9363 125.176 17.9857 125.176 18.0348C125.863 18.2305 126.55 18.427 127.237 18.6237Z" fill="#DA812C" fill-opacity="0.941176"/>
<path d="M118.195 5.58118V25.0691H115.773V5.58118H110.527V3.33244H123.5V5.58118H118.195ZM102.537 7.94506L98.8183 16.6511H106.169L102.537 7.94506ZM109.686 25.0691L107.121 18.8997H97.8375L95.2147 25.0691H92.5622L102.595 2.29437L112.367 25.0691H109.686ZM83.9139 23.1955C86.3643 23.1955 88.7568 22.0424 90.4868 20.3124V23.3111C88.613 24.6662 86.3064 25.4441 84.0007 25.4441C77.8599 25.4441 72.672 20.4569 72.672 14.2872C72.672 8.06031 77.7738 2.95745 84.0007 2.95745C86.422 2.95745 88.555 3.64931 90.4868 5.09085V8.08883C88.7568 6.3014 86.3643 5.20644 83.8566 5.20644C79.0131 5.20644 75.0918 9.41525 75.0918 14.2011C75.0918 18.9862 79.0416 23.1955 83.9139 23.1955ZM59.3005 5.20644C54.3135 5.20644 50.3925 9.27123 50.3925 14.2011C50.3925 19.1018 54.3712 23.1955 59.3005 23.1955C64.2305 23.1955 68.2088 19.1018 68.2088 14.2011C68.2088 9.27123 64.2882 5.20644 59.3005 5.20644ZM59.3005 25.4441C53.1024 25.4441 47.9709 20.4856 47.9709 14.2296C47.9709 8.00256 53.1024 2.95745 59.3005 2.95745C65.4993 2.95745 70.6298 8.00256 70.6298 14.2296C70.6298 20.4856 65.4993 25.4441 59.3005 25.4441ZM38.199 26.1934L31.1647 8.69442L24.1304 26.1934L15.7989 3.33244H18.4222L24.1304 19.6208L31.1647 2.20813L38.199 19.6208L43.9067 3.33244H46.5304L38.199 26.1934Z" fill="#231F20"/>
</svg>
