<?xml version="1.0" encoding="UTF-8"?>
<!-- Generated by Pixelmator Pro 2.4.2 -->
<svg width="125" height="124" viewBox="0 0 125 124" xmlns="http://www.w3.org/2000/svg" xmlns:xlink="http://www.w3.org/1999/xlink">
    <g id="Colour-Black">
        <path id="Path" fill="#c5202e" stroke="none" d="M 21.59 20.419998 C 21.37867 20.717628 21.144638 20.998466 20.889999 21.260002 C 22.407848 18.206375 21.456062 14.501556 18.654331 12.557648 C 15.852596 10.613739 12.049015 11.01918 9.719999 13.509995 C 9.872789 13.181793 10.053452 12.86731 10.26 12.569992 C 12.416672 9.441299 16.701305 8.65332 19.829998 10.809998 C 22.958694 12.966675 23.746674 17.251305 21.59 20.379997 Z"/>
        <path id="path1" fill="#ed1c24" stroke="none" d="M 18.591835 12.632889 C 21.679348 14.76123 22.708473 18.624588 20.890446 21.26194 C 19.072422 23.899284 15.095695 24.311913 12.008183 22.183571 C 8.920664 20.055229 7.891539 16.191872 9.709564 13.55452 C 11.527592 10.917175 15.504318 10.504547 18.591835 12.632889 Z"/>
        <path id="path2" fill="#bf8b2c" stroke="none" d="M 44 110.099991 C 52.090225 117.648521 62.606133 122.066185 73.660004 122.560005 L 73.660004 113.150002 C 65.690002 113.670006 55.82 112.890007 44 110.099991 Z"/>
        <path id="path3" fill="#bf8b2c" stroke="none" d="M 95.330002 105.630005 C 92.18 108.809998 86.389999 111.57 77.900002 112.730003 L 77.900002 122.560005 C 97.804489 121.641594 114.937119 108.202896 120.570007 89.089996 L 93.459999 61.980003 C 102.610001 86.589996 101.449997 99.509995 95.330002 105.630005 Z"/>
        <path id="path4" fill="#407f46" stroke="none" d="M 110.369995 44.510002 L 95.459999 59.510002 L 121.460007 85.509995 C 124.548264 70.855797 120.424271 55.609314 110.369995 44.510002 Z"/>
        <path id="path5" fill="#407f46" stroke="none" d="M 108.149994 42.260002 C 100.178925 34.551346 89.717842 29.941383 78.650002 29.260002 C 84.360001 40.309998 88.769997 49.940002 92.07 58.260002 Z"/>
        <path id="path6" fill="#dea73a" stroke="none" d="M 61.760002 91.929993 L 43.760002 109.929993 L 43.949997 110.099991 C 55.82 112.890007 65.690002 113.670006 73.610001 113.099998 L 73.610001 103.729996 Z"/>
        <path id="path7" fill="#dea73a" stroke="none" d="M 93.459999 61.980003 L 93.199997 61.720001 L 77.900002 77.020004 L 77.900002 112.730003 C 86.389999 111.57 92.18 108.809998 95.330002 105.630005 C 101.449997 99.509995 102.610001 86.589996 93.459999 61.980003 Z"/>
        <path id="path8" fill="#5cba47" stroke="none" d="M 77.900002 72.510002 L 92.07 58.340004 C 88.769997 49.980003 84.360001 40.340004 78.650002 29.340004 L 77.900002 29.340004 Z"/>
        <path id="path9" fill="#5cba47" stroke="none" d="M 73.610001 59.860001 L 73.610001 29.25 C 65.354828 29.610184 57.345581 32.168304 50.410004 36.660004 Z"/>
        <path id="path10" fill="#5cba47" stroke="none" d="M 29 75.900002 C 28.988533 87.686081 33.444462 99.038513 41.470001 107.669998 L 59.470001 89.669998 L 31.32 61.510002 C 29.793392 66.154488 29.010403 71.011063 29 75.900002 Z"/>
        <path id="path11" fill="#5cba47" stroke="none" d="M 32.529999 58.190002 L 73.610001 99.270004 L 73.610001 64.370003 L 47.75 38.510002 C 40.995773 43.578461 35.737015 50.37822 32.529999 58.190002 Z"/>
        <path id="path12" fill="#1c75bc" stroke="none" d="M 30.849998 7.300003 L 30.849998 7.300003 L 30.849998 7.300003 Z"/>
        <path id="path13" fill="#1c75bc" stroke="none" d="M 24.130001 29.510002 C 25.290001 27.760002 30.860001 22.970001 29.84 18.050003 C 29.439999 16.110001 28.18 14.899994 27.049999 13.699997 L 26.869999 13.820007 C 28.139244 17.383415 27.460987 21.350647 25.080002 24.290001 C 25.012314 24.399704 24.935368 24.503418 24.849998 24.599998 L 24.59 24.840004 C 24.511833 24.931488 24.428356 25.018311 24.34 25.099998 C 24.248177 25.193855 24.14386 25.274612 24.029999 25.340004 C 21.135433 27.686218 17.24155 28.388023 13.709999 27.199997 C 13 28.199997 12.32 29.199997 11.709999 30.199997 C 15.742435 31.853455 20.305534 31.599945 24.130001 29.510002 Z"/>
        <path id="path14" fill="#1c75bc" stroke="none" d="M 30.290001 33.290001 C 30.450001 32.959999 30.650002 32.559998 30.889999 32.050003 C 33.889999 25.870003 35.380001 22.769997 35.689999 20.050003 C 35.959999 17.599998 36.02 11.699997 33.32 9.649994 L 32.459999 10.139999 C 35.362431 16.422462 34.275528 23.826721 29.689999 29.010002 C 29.632893 29.094734 29.56937 29.174973 29.5 29.25 C 29.408508 29.328163 29.321693 29.411644 29.240002 29.5 L 28.990002 29.75 C 28.91983 29.827644 28.839027 29.894981 28.75 29.949997 C 23.632442 34.485092 16.336746 35.611115 10.09 32.830002 C 9.51 33.830002 8.940001 34.910004 8.41 35.980003 C 15.625481 39.291252 24.091469 38.25042 30.290001 33.290001 Z"/>
        <path id="path15" fill="#3765b0" stroke="none" d="M 29.84 18.050003 C 30.84 22.970001 25.290001 27.760002 24.130001 29.510002 C 25.219364 28.923027 26.22781 28.196945 27.130001 27.349998 C 31.093346 23.169998 32.186596 17.031281 29.91 11.740005 C 28.91 12.369995 28.009998 13.020004 27.09 13.740005 C 28.18 14.899994 29.439999 16.110001 29.84 18.050003 Z"/>
        <path id="path16" fill="#3765b0" stroke="none" d="M 35.689999 20.029999 C 35.380001 22.769997 33.880001 25.870003 30.889999 32.029999 C 30.650002 32.540001 30.450001 32.940002 30.290001 33.269997 C 30.790001 32.870003 31.290001 32.440002 31.75 31.989998 C 37.820663 25.691063 39.350555 16.288597 35.59 8.389999 C 34.82 8.779999 34.07 9.190002 33.32 9.610001 C 36 11.679993 36 17.580002 35.689999 20.029999 Z"/>
        <path id="path17" fill="#ed1c24" stroke="none" d="M 4.129999 23.989998 C 2.732048 26.095497 1.443668 28.271721 0.27 30.510002 C 1.408262 31.89518 2.722734 33.12561 4.18 34.169998 C 3.969423 30.780388 3.952728 27.381516 4.129999 23.989998 Z"/>
        <path id="path18" fill="#ed1c24" stroke="none" d="M 4.620001 34.510002 L 4.620001 34.510002 Z"/>
        <path id="path19" fill="#ed1c24" stroke="none" d="M 29.759998 0.710007 C 26.486576 2.465317 23.353893 4.471298 20.389999 6.710007 C 20.610001 6.789993 20.82 6.910004 21.029999 7 C 26.419998 6.130005 30.459999 5.259995 32.560001 3.449997 C 31.712696 2.452713 30.77541 1.535507 29.759998 0.710007 Z"/>
        <path id="path20" fill="#c5202e" stroke="none" d="M 6.24 20.980003 C 5.51 21.980003 4.809999 22.980003 4.129999 23.980003 C 3.952728 27.371513 3.969423 30.770393 4.18 34.160004 L 4.620001 34.489998 L 4.620001 34.489998 C 6.118128 31.461952 7.84654 28.553406 9.790001 25.790001 C 8.18532 24.545128 6.956606 22.88031 6.24 20.980003 Z"/>
        <path id="path21" fill="#c5202e" stroke="none" d="M 25.209999 10.229996 C 27.93145 8.27774 30.80003 6.5392 33.790001 5.029999 C 33.41 4.479996 32.990002 3.960007 32.560001 3.449997 C 30.459999 5.259995 26.419998 6.130005 21.029999 7 C 22.661545 7.726974 24.094959 8.83461 25.209999 10.229996 Z"/>
        <path id="path22" fill="#1c97d4" stroke="none" d="M 38 113.610008 C 35.793941 111.364357 33.786446 108.931946 32 106.339996 C 23.599998 101.599991 18.220001 93.569992 16.380001 90.830002 C 7.32 77.290001 9.59 59.200005 15.25 40.830002 C 12.298977 40.587807 9.417686 39.804779 6.75 38.519997 L 6.440001 39.110001 C -0.803493 56.371681 0.175957 75.987572 9.102938 92.441833 C 18.029919 108.896088 33.940224 120.411491 52.360001 123.750008 C 47.042915 121.191795 42.189686 117.764793 38 113.610008 Z"/>
        <path id="path23" fill="#29bee2" stroke="none" d="M 63.309998 1.369995 C 54.641396 1.362778 46.06971 3.193008 38.16 6.740005 C 42.611874 15.665634 41.079178 26.414406 34.310001 33.739998 C 34.265621 33.807571 34.215431 33.871147 34.16 33.93 C 34.068508 34.008163 33.981693 34.091644 33.900002 34.18 C 33.82 34.260002 33.740002 34.349998 33.650002 34.43 C 33.594814 34.488518 33.53458 34.542053 33.470001 34.590004 C 28.536804 39.152161 21.917027 41.437347 15.220001 40.889999 C 9.559999 59.220001 7.290001 77.310005 16.349998 90.889999 C 18.189999 93.630005 23.57 101.660004 31.970001 106.399994 C 20.566418 90.065796 19.223492 68.735695 28.488377 51.100227 C 37.753262 33.464752 56.07933 22.467857 76 22.590004 C 75.089996 20.650002 74.639999 18.590004 75.440002 17 C 76.139999 15.559998 77.730003 14.589996 79.919998 14 C 85.599998 12.490005 95.290001 13.660004 103.660004 16.400002 C 92.46244 6.688293 78.132355 1.350464 63.309998 1.369995 Z"/>
        <path id="path24" fill="#1c97d4" stroke="none" d="M 103.650002 16.400002 C 95.279999 13.660004 85.589996 12.490005 79.910004 14 C 77.720001 14.589996 76.129997 15.559998 75.43 17 C 74.629997 18.629997 75.080002 20.650002 75.989998 22.590004 C 96.845741 22.664879 115.738739 34.905853 124.330002 53.910004 C 122.146454 39.335167 114.809082 26.026443 103.650002 16.400002 Z"/>
    </g>
</svg>
