<svg xmlns="http://www.w3.org/2000/svg" viewBox="0 0 396 161.49"><defs><style>.cls-1{fill:#1d1d1b;}.cls-2{fill:#c5202e;}.cls-3{fill:#ed1c24;}.cls-4{fill:#bf8b2c;}.cls-5{fill:#407f46;}.cls-6{fill:#dea73a;}.cls-7{fill:#5cba47;}.cls-8{fill:#1c75bc;}.cls-9{fill:#3765b0;}.cls-10{fill:#1c97d4;}.cls-11{fill:#29bee2;}</style></defs><g id="Colour-Black"><path class="cls-1" d="M255.74,83.08c-5.71,0-9.46,3.49-9.46,8.81v12.64c0,5.31,3.75,8.8,9.46,8.8s9.37-3.49,9.37-8.8V91.89c0-5.32-3.71-8.81-9.37-8.81M260,104.39a4.25,4.25,0,0,1-8.5,0V92a4.25,4.25,0,0,1,8.5,0Z"/><path class="cls-1" d="M287,92.89c0-5.88-3.36-9.28-9.2-9.28h-9v29.2H274V102.22h3.4l4.1,10.59h6.06l-5.19-11.47c3.05-1.35,4.71-4.22,4.71-8.45m-9.72,4.75H274V88.36h3.36c2.88,0,4.53,1.7,4.53,4.62s-1.65,4.66-4.53,4.66"/><rect class="cls-1" x="329.44" y="83.61" width="5.14" height="29.2"/><path class="cls-1" d="M347.7,83.08c-5.71,0-9.46,3.49-9.46,8.81v12.64c0,5.31,3.75,8.8,9.46,8.8s9.37-3.49,9.37-8.8V91.89c0-5.32-3.71-8.81-9.37-8.81m4.22,21.31a4.25,4.25,0,0,1-8.49,0V92a4.25,4.25,0,0,1,8.49,0Z"/><polygon class="cls-1" points="374.15 83.61 374.15 101.17 374.41 103.17 374.02 103.17 366.83 83.61 360.77 83.61 360.77 112.81 365.91 112.81 365.91 95.24 365.7 93.24 366.09 93.24 373.24 112.81 379.34 112.81 379.34 83.61 374.15 83.61"/><path class="cls-1" d="M227.41,88.36h6.18v24.45h5.15V88.36H243a2.22,2.22,0,0,0,1.93-1.9V83.61H227.41v4.75Z"/><path class="cls-1" d="M309,88.36h6.18v24.45h5.15V88.36h4.21a2.23,2.23,0,0,0,1.93-1.9V83.61H309Z"/><path class="cls-1" d="M295.53,83.61l-6.89,29.2h3.12a2.8,2.8,0,0,0,2.83-2.33l.81-4h7.27l.81,4a2.79,2.79,0,0,0,2.83,2.31h3.34l-6.89-29.19Zm.78,18.21,2.57-13.07h.31l2.57,13.07Z"/><path class="cls-1" d="M203.3,88.35a2.22,2.22,0,0,0,2.23-2.22V83.61H190.45v29.2h15.08v-4.75h-9.94v-7.67h8.54V95.77h-8.54V88.36Z"/><path class="cls-1" d="M225.86,104.63c0-10.55-12.38-7.76-12.38-13.69,0-2,1.35-3.18,3.4-3.18s3.36,1.08,3.51,2.76v0a1.41,1.41,0,0,0,1.34,1.4h3.69V90.77c0-4.62-3.36-7.76-8.58-7.76s-8.5,3-8.5,8.28c0,10.2,12.37,7.67,12.37,13.69a3.36,3.36,0,0,1-3.66,3.53c-2.28,0-3.73-1.32-3.82-3.34v0a1.41,1.41,0,0,0-1.38-1.4h-3.73V105c0,5,3.57,8.28,9,8.28s8.76-3.14,8.76-8.63"/><path class="cls-1" d="M174.15,102.22h3.4l4.09,10.59h6.06l-5.19-11.47c3.06-1.35,4.71-4.22,4.71-8.45,0-5.88-3.35-9.28-9.19-9.28h-9v29.2h5.15V102.22Zm0-13.86h3.35c2.88,0,4.53,1.7,4.53,4.62s-1.65,4.66-4.53,4.66h-3.35Z"/><path class="cls-1" d="M217.73,48.92c-5.71,0-9.46,3.49-9.46,8.8V70.36c0,5.32,3.75,8.8,9.46,8.8s9.37-3.48,9.37-8.8V57.72c0-5.31-3.7-8.8-9.37-8.8M222,70.23a4.25,4.25,0,0,1-8.5,0V57.85a4.25,4.25,0,0,1,8.5,0Z"/><path class="cls-1" d="M264.15,49.44h-2.23l-.35,1-3.79,10.81h-.3L254,51.33c.06.14.12.29.18.46l-.81-2.35h-6L255,66.87V78.64h5.19V66.87l7.54-17.43h-3.53"/><polygon class="cls-1" points="344.56 57.51 344.99 57.51 344.73 59.51 344.73 78.64 349.88 78.64 349.88 49.44 342.9 49.44 338.37 65.26 338.06 65.26 333.49 49.44 326.34 49.44 326.34 78.64 331.49 78.64 331.49 59.51 331.27 57.51 331.66 57.51 336.19 72.36 340.03 72.36 344.56 57.51"/><path class="cls-1" d="M184.08,73.89h-9.93V66.22h8.54V61.6h-8.54V54.19h7.71A2.22,2.22,0,0,0,184.08,52V49.44H169v29.2h15.07V73.89Z"/><path class="cls-1" d="M196.31,79.17c5.53,0,9.2-3.4,9.2-8.59v-2.4h-3a2.23,2.23,0,0,0-2.13,2.22v0a4.08,4.08,0,0,1-8.15,0V57.63a4.08,4.08,0,0,1,8.15,0v0a2.23,2.23,0,0,0,2.23,2.23h2.92V57.5c0-5.18-3.67-8.58-9.2-8.58S187,52.32,187,57.5V70.58c0,5.19,3.71,8.59,9.29,8.59"/><path class="cls-1" d="M235,56.85c0-2,1.35-3.18,3.4-3.18s3.35,1.08,3.51,2.76v0a1.4,1.4,0,0,0,1.33,1.4h3.7V56.68c0-4.62-3.36-7.76-8.59-7.76s-8.5,3-8.5,8.28c0,10.2,12.38,7.67,12.38,13.69a3.35,3.35,0,0,1-3.66,3.53c-2.28,0-3.74-1.32-3.83-3.34v0a1.4,1.4,0,0,0-1.37-1.4h-3.73v1.18c0,5,3.57,8.28,9,8.28s8.76-3.14,8.76-8.63C247.32,60,235,62.78,235,56.85"/><path class="cls-1" d="M277.06,79.16c5.28,0,8.76-3.13,8.76-8.62,0-10.55-12.38-7.76-12.38-13.69a3.07,3.07,0,0,1,3.4-3.18c2,0,3.36,1.08,3.52,2.76v0a1.4,1.4,0,0,0,1.33,1.4h3.7V56.68c0-4.62-3.36-7.76-8.59-7.76s-8.5,3-8.5,8.28c0,10.2,12.38,7.67,12.38,13.69A3.36,3.36,0,0,1,277,74.42c-2.28,0-3.74-1.31-3.83-3.34v0a1.4,1.4,0,0,0-1.37-1.4h-3.74v1.18c0,5,3.58,8.27,9,8.27"/><path class="cls-1" d="M293.22,78.64h5.14V54.19h4.21a2.23,2.23,0,0,0,1.94-1.89V49.44H287v4.75h6.19V78.64Z"/><path class="cls-1" d="M320.37,54.17a2.22,2.22,0,0,0,2.22-2V49.42H307.51v29.2h15.08V73.87h-9.93V66.2h8.54V61.58h-8.54V54.17Z"/><path class="cls-1" d="M229.36,126.67H231l2,5.11h2.92l-2.5-5.53c1.47-.65,2.27-2,2.27-4.08,0-2.83-1.62-4.47-4.44-4.47h-4.35v14.08h2.48v-5.11Zm0-6.68H231a2.24,2.24,0,0,1,0,4.48h-1.62Z"/><polygon class="cls-1" points="177.74 121.6 177.95 121.6 177.83 122.56 177.83 131.74 180.29 131.74 180.29 117.73 176.95 117.73 174.78 125.32 174.63 125.32 172.43 117.73 169 117.73 169 131.74 171.47 131.74 171.47 122.56 171.37 121.6 171.55 121.6 173.73 128.73 175.57 128.73 177.74 121.6"/><rect class="cls-1" x="237.33" y="117.7" width="2.48" height="14.08"/><rect class="cls-1" x="202.6" y="117.7" width="2.48" height="14.08"/><polygon class="cls-1" points="247.69 126.17 247.82 127.14 247.63 127.14 244.16 117.7 241.24 117.7 241.24 131.78 243.72 131.78 243.72 123.31 243.61 122.34 243.8 122.34 247.25 131.78 250.19 131.78 250.19 117.7 247.69 117.7 247.69 126.17"/><polygon class="cls-1" points="198.67 126.17 198.8 127.14 198.61 127.14 195.14 117.7 192.22 117.7 192.22 131.78 194.7 131.78 194.7 123.31 194.6 122.34 194.78 122.34 198.23 131.78 201.17 131.78 201.17 117.7 198.67 117.7 198.67 126.17"/><polygon class="cls-1" points="209.5 131.78 211.98 131.78 211.98 119.99 214.94 119.99 214.94 117.7 206.51 117.7 206.51 119.99 209.5 119.99 209.5 131.78"/><path class="cls-1" d="M220.93,132c2.74,0,4.52-1.68,4.52-4.24v-6.1c0-2.56-1.78-4.24-4.52-4.24s-4.56,1.68-4.56,4.24v6.1c0,2.56,1.81,4.24,4.56,4.24m-2.06-10.28a2.05,2.05,0,0,1,4.1,0v6a2.05,2.05,0,0,1-4.1,0Z"/><path class="cls-1" d="M186.28,132c2.74,0,4.52-1.68,4.52-4.24v-6.1c0-2.56-1.78-4.24-4.52-4.24s-4.56,1.68-4.56,4.24v6.1c0,2.56,1.81,4.24,4.56,4.24m-2.05-10.28a2,2,0,0,1,4.09,0v6a2,2,0,0,1-4.09,0Z"/><path class="cls-1" d="M251.62,127.46V122c0-2.94,1.64-4.52,4.44-4.52s4.18,1.58,4.28,4.52h-1.71a1.34,1.34,0,0,1-1.27-.9,1.18,1.18,0,0,0-1.3-.88c-1,0-1.48.52-1.48,1.78v5.44c0,1.26.5,1.78,1.5,1.78s1.54-.52,1.54-1.78v-1h-1.68v-2.52h4.48v3.52c-.08,2.94-1.64,4.52-4.38,4.52S251.62,130.4,251.62,127.46Z"/><path class="cls-1" d="M279.06,40h1.41l1.7,4.39h2.51l-2.15-4.75a3.51,3.51,0,0,0,2-3.51,3.49,3.49,0,0,0-3.81-3.85h-3.75V44.43h2.14V40Zm0-5.75h1.39a1.73,1.73,0,0,1,1.88,1.91,1.74,1.74,0,0,1-1.88,1.94h-1.39Z"/><path class="cls-1" d="M271.81,44.65A3.55,3.55,0,0,0,275.69,41V35.75a3.55,3.55,0,0,0-3.88-3.65c-2.37,0-3.92,1.45-3.92,3.65V41c0,2.21,1.55,3.66,3.92,3.66M270,35.81a1.76,1.76,0,0,1,3.52,0v5.13a1.76,1.76,0,0,1-3.52,0Z"/><path class="cls-1" d="M262.55,42.45h0V39.27h3.53V37.36h-3.53V34.3h3.19a.92.92,0,0,0,.92-.92v-1h-6.24V44.41h2.13v-2Z"/><path class="cls-1" d="M179.11,40h1.41l1.7,4.39h2.51l-2.15-4.75a3.51,3.51,0,0,0,1.95-3.51,3.49,3.49,0,0,0-3.81-3.85H177V44.43h2.14V40Zm0-5.75h1.39a1.73,1.73,0,0,1,1.88,1.91,1.74,1.74,0,0,1-1.88,1.94h-1.39Z"/><path class="cls-1" d="M240.5,40h1.41l1.7,4.39h2.51L244,39.68a3.5,3.5,0,0,0,2-3.51,3.5,3.5,0,0,0-3.82-3.85h-3.74V44.43h2.13V40Zm0-5.75h1.39a1.72,1.72,0,0,1,1.88,1.91,1.74,1.74,0,0,1-1.88,1.94H240.5Z"/><path class="cls-1" d="M213.55,42.46h-4.13V39.28H213V37.36h-3.55V34.29h3.2a.93.93,0,0,0,.93-.93v-1h-6.26V44.43h6.26Z"/><path class="cls-1" d="M233,44.65A3.55,3.55,0,0,0,236.93,41V35.75A3.55,3.55,0,0,0,233,32.1c-2.36,0-3.92,1.45-3.92,3.65V41A3.58,3.58,0,0,0,233,44.65m-1.77-8.84a1.77,1.77,0,0,1,3.53,0v5.13a1.77,1.77,0,0,1-3.53,0Z"/><path class="cls-1" d="M188.43,43.47l.33-1.68h3l.33,1.68a1.19,1.19,0,0,0,1.17,1h1.39l-2.85-12.11h-3L186,44.43h1.29a1.19,1.19,0,0,0,1.18-1m1.78-9h.12l1.07,5.43h-2.26Z"/><path class="cls-1" d="M171.13,42.45h0V39.27h3.53V37.36h-3.53V34.3h3.19a.92.92,0,0,0,.92-.92v-1H169V44.41h2.13v-2Z"/><polygon class="cls-1" points="203.42 35.67 203.6 35.67 203.49 36.5 203.49 44.4 205.61 44.4 205.61 32.35 202.73 32.35 200.86 38.88 200.74 38.88 198.85 32.35 195.9 32.35 195.9 44.4 198.02 44.4 198.02 36.5 197.93 35.67 198.09 35.67 199.97 41.81 201.55 41.81 203.42 35.67"/><path class="cls-1" d="M214.78,32.35h1.68a1,1,0,0,1,1,.83l.81,4.87c.13.87.38,2.35.5,3.35h.06c.12-1,.37-2.48.5-3.35l.81-4.7a1,1,0,0,1,1-.83H222a1,1,0,0,1,1,.83l.8,4.7c.14.87.38,2.35.5,3.35h.07c.12-1,.36-2.48.5-3.35l.81-4.87a1,1,0,0,1,1-.83h1.68l-2.72,12h-1.68a1.11,1.11,0,0,1-1.09-.89l-.67-3.14a29.19,29.19,0,0,1-.57-3.94h-.07a30.88,30.88,0,0,1-.57,3.94l-.67,3.15a1.11,1.11,0,0,1-1.09.88H217.5Z"/><path class="cls-1" d="M250.44,39.84l-.67,1.09v2.82a.67.67,0,0,1-.67.67h-1.75V32.33h1.46a1,1,0,0,1,1,1V37l.62-1.35,1.32-2.55a1.34,1.34,0,0,1,1.2-.73h2l-3.07,5.28,3.59,6.81h-1.86a1.43,1.43,0,0,1-1.29-.82Z"/><path class="cls-2" d="M42.59,38.91a7.08,7.08,0,0,1-.7.84A6.87,6.87,0,0,0,30.72,32a6.33,6.33,0,0,1,.54-.94,6.88,6.88,0,0,1,11.33,7.81Z"/><ellipse class="cls-3" cx="36.3" cy="35.9" rx="5.8" ry="6.79" transform="translate(-13.86 45.41) rotate(-55.42)"/><path class="cls-4" d="M65,128.59a46.52,46.52,0,0,0,29.66,12.46v-9.41C86.69,132.16,76.82,131.38,65,128.59Z"/><path class="cls-4" d="M116.33,124.12c-3.15,3.18-8.94,5.94-17.43,7.1v9.83a46.73,46.73,0,0,0,42.67-33.47L114.46,80.47C123.61,105.08,122.45,118,116.33,124.12Z"/><path class="cls-5" d="M131.37,63,116.46,78l26,26A46.72,46.72,0,0,0,131.37,63Z"/><path class="cls-5" d="M129.15,60.75a46.55,46.55,0,0,0-29.5-13c5.71,11.05,10.12,20.68,13.42,29Z"/><path class="cls-6" d="M82.76,110.42l-18,18,.19.17c11.87,2.79,21.74,3.57,29.66,3v-9.37Z"/><path class="cls-6" d="M114.46,80.47l-.26-.26L98.9,95.51v35.71c8.49-1.16,14.28-3.92,17.43-7.1C122.45,118,123.61,105.08,114.46,80.47Z"/><path class="cls-7" d="M98.9,91l14.17-14.17c-3.3-8.36-7.71-18-13.42-29l-.75,0Z"/><path class="cls-7" d="M94.61,78.35V47.74a46.4,46.4,0,0,0-23.2,7.41Z"/><path class="cls-7" d="M50,94.39a46.59,46.59,0,0,0,12.47,31.77l18-18L52.32,80A46.4,46.4,0,0,0,50,94.39Z"/><path class="cls-7" d="M53.53,76.68l41.08,41.08V82.86L68.75,57A46.85,46.85,0,0,0,53.53,76.68Z"/><path class="cls-8" d="M51.85,25.79l0,0a0,0,0,0,0,0,0Z"/><path class="cls-8" d="M45.13,48c1.16-1.75,6.73-6.54,5.71-11.46-.4-1.94-1.66-3.15-2.79-4.35l-.18.12a10.85,10.85,0,0,1-1.79,10.47,2.26,2.26,0,0,1-.23.31l-.26.24a3.07,3.07,0,0,1-.25.26,1.43,1.43,0,0,1-.31.24,10.88,10.88,0,0,1-10.32,1.86c-.71,1-1.39,2-2,3A14.46,14.46,0,0,0,45.13,48Z"/><path class="cls-8" d="M51.29,51.78c.16-.33.36-.73.6-1.24,3-6.18,4.49-9.28,4.8-12,.27-2.45.33-8.35-2.37-10.4l-.86.49A17.44,17.44,0,0,1,50.69,47.5a2,2,0,0,1-.19.24,3.07,3.07,0,0,0-.26.25l-.25.25a1.11,1.11,0,0,1-.24.2,17.44,17.44,0,0,1-18.66,2.88c-.58,1-1.15,2.08-1.68,3.15A21,21,0,0,0,51.29,51.78Z"/><path class="cls-9" d="M50.84,36.54c1,4.92-4.55,9.71-5.71,11.46a14.28,14.28,0,0,0,3-2.16,14.41,14.41,0,0,0,2.78-15.61c-1,.63-1.9,1.28-2.82,2C49.18,33.39,50.44,34.6,50.84,36.54Z"/><path class="cls-9" d="M56.69,38.52c-.31,2.74-1.81,5.84-4.8,12-.24.51-.44.91-.6,1.24.5-.4,1-.83,1.46-1.28a21,21,0,0,0,3.84-23.6c-.77.39-1.52.8-2.27,1.22C57,30.17,57,36.07,56.69,38.52Z"/><path class="cls-3" d="M25.13,42.48A73.47,73.47,0,0,0,21.27,49a20.57,20.57,0,0,0,3.91,3.66A89.14,89.14,0,0,1,25.13,42.48Z"/><path class="cls-3" d="M25.62,53v0Z"/><path class="cls-3" d="M50.76,19.2a72,72,0,0,0-9.37,6c.22.08.43.2.64.29,5.39-.87,9.43-1.74,11.53-3.55A21.33,21.33,0,0,0,50.76,19.2Z"/><path class="cls-2" d="M27.24,39.47c-.73,1-1.43,2-2.11,3a89.14,89.14,0,0,0,.05,10.18l.44.33v0a66,66,0,0,1,5.17-8.7A11,11,0,0,1,27.24,39.47Z"/><path class="cls-2" d="M46.21,28.72a64.86,64.86,0,0,1,8.58-5.2c-.38-.55-.8-1.07-1.23-1.58-2.1,1.81-6.14,2.68-11.53,3.55A11.17,11.17,0,0,1,46.21,28.72Z"/><path class="cls-10" d="M59,132.1A54.54,54.54,0,0,1,53,124.83c-8.4-4.74-13.78-12.77-15.62-15.51-9.06-13.54-6.79-31.63-1.13-50a24.14,24.14,0,0,1-8.5-2.31l-.31.59a61.74,61.74,0,0,0,45.92,84.64A53.07,53.07,0,0,1,59,132.1Z"/><path class="cls-11" d="M84.31,19.86a61.34,61.34,0,0,0-25.15,5.37,24,24,0,0,1-3.85,27,1.39,1.39,0,0,1-.15.19,3.07,3.07,0,0,0-.26.25c-.08.08-.16.17-.25.25a1.37,1.37,0,0,1-.18.16,24,24,0,0,1-18.25,6.3c-5.66,18.33-7.93,36.42,1.13,50,1.84,2.74,7.22,10.77,15.62,15.51A53.3,53.3,0,0,1,97,41.08c-.91-1.94-1.36-4-.56-5.59.7-1.44,2.29-2.41,4.48-3,5.68-1.51,15.37-.34,23.74,2.4A61.46,61.46,0,0,0,84.31,19.86Z"/><path class="cls-10" d="M124.65,34.89c-8.37-2.74-18.06-3.91-23.74-2.4-2.19.59-3.78,1.56-4.48,3-.8,1.63-.35,3.65.56,5.59A53.26,53.26,0,0,1,145.33,72.4,61.59,61.59,0,0,0,124.65,34.89Z"/></g></svg>